<svg width="20" height="20" viewBox="0 0 20 20" fill="none" xmlns="http://www.w3.org/2000/svg">
<path fill-rule="evenodd" clip-rule="evenodd" d="M16 2.66667H18C18.5304 2.66667 19.0391 2.87738 19.4142 3.25245C19.7893 3.62753 20 4.13623 20 4.66667V18C20 18.5304 19.7893 19.0391 19.4142 19.4142C19.0391 19.7893 18.5304 20 18 20H2C1.46957 20 0.960859 19.7893 0.585786 19.4142C0.210714 19.0391 0 18.5304 0 18L0 4.66667C0 4.13623 0.210714 3.62753 0.585786 3.25245C0.960859 2.87738 1.46957 2.66667 2 2.66667H4V0H5.33333V2.66667H14.6667V0H16V2.66667ZM8 10.6667H4V9.33333H8V10.6667ZM16 9.33333H12V10.6667H16V9.33333ZM8 14.6667H4V13.3333H8V14.6667ZM12 14.6667H16V13.3333H12V14.6667Z" fill="#AFB3BE"/>
</svg>
