<svg width="39" height="41" viewBox="0 0 39 41" fill="none" xmlns="http://www.w3.org/2000/svg">
<path d="M36.6686 39.5829H2.335C1.86646 39.5829 1.4171 39.3968 1.0858 39.0655C0.754487 38.7341 0.568359 38.2848 0.568359 37.8163V13.7675C0.568359 11.1357 2.61375 9.00342 5.137 9.00342H33.8702C36.3934 9.00342 38.4388 11.1357 38.4388 13.7675V37.8163C38.4388 38.7937 37.646 39.5829 36.6686 39.5829Z" fill="#FAFAFA" stroke="#BDBDBD" stroke-width="1.08605" stroke-miterlimit="10"/>
<path d="M36.9184 8.21707e-07H35.1807C34.8187 8.21707e-07 34.5254 0.293234 34.5254 0.655249V2.13589C34.5254 2.37844 34.663 2.58841 34.8694 2.71512C35.597 3.14954 36.0423 4.00752 35.8504 4.94876C35.6875 5.74519 35.0504 6.38958 34.2539 6.55611C33.948 6.62332 33.6309 6.62109 33.3259 6.54956C33.0209 6.47804 32.7358 6.33904 32.4917 6.14281C32.2475 5.94657 32.0505 5.69809 31.915 5.41564C31.7795 5.13319 31.7091 4.82397 31.709 4.51072C31.709 3.74324 32.1217 3.07351 32.7407 2.7115C32.9471 2.58841 33.081 2.37844 33.081 2.13951V0.655249C33.081 0.293234 32.7878 8.21707e-07 32.4258 8.21707e-07H6.56697C6.21219 8.21707e-07 5.9262 0.285993 5.9262 0.640769V2.14675C5.9262 2.38206 6.06014 2.58841 6.26287 2.70788C6.64133 2.93014 6.94036 3.26571 7.11771 3.66718C7.29505 4.06864 7.34174 4.51569 7.25118 4.94514C7.08827 5.74157 6.45112 6.38596 5.65469 6.55249C5.34873 6.6197 5.0316 6.61747 4.72663 6.54594C4.42165 6.47442 4.1366 6.33542 3.89243 6.13919C3.64826 5.94295 3.4512 5.69447 3.31575 5.41202C3.18029 5.12957 3.10989 4.82035 3.10972 4.5071C3.10972 3.736 3.52965 3.06627 4.1487 2.70064C4.34781 2.58479 4.47814 2.37482 4.47814 2.14313V0.640769C4.47814 0.285993 4.19214 8.21707e-07 3.83737 8.21707e-07H2.08159C1.52952 8.21707e-07 1.00006 0.219311 0.609684 0.609685C0.21931 1.00006 0 1.52952 0 2.08159V15.6644H38.942L39 2.09245C39.0016 1.81811 38.949 1.54616 38.8451 1.29224C38.7412 1.03833 38.5882 0.807478 38.3947 0.612985C38.2012 0.418491 37.9711 0.2642 37.7178 0.158996C37.4644 0.0537929 37.1927 -0.000243036 36.9184 8.21707e-07Z" fill="#F44336"/>
<path d="M12.6564 4.1485H14.1479V9.1588C14.1479 9.61856 14.0465 10.0276 13.8438 10.3788C13.6411 10.73 13.3515 11.0051 12.9822 11.197C12.6093 11.3888 12.193 11.4866 11.726 11.4866C10.9621 11.4866 10.3648 11.2911 9.93764 10.9037C9.51046 10.5164 9.29688 9.96248 9.29688 9.25293H10.7992C10.7992 9.6077 10.8753 9.86835 11.0237 10.0385C11.1721 10.2086 11.4074 10.2919 11.7296 10.2919C12.0156 10.2919 12.2401 10.1942 12.4102 9.99868C12.5804 9.80319 12.6636 9.52444 12.6636 9.16242V4.1485H12.6564ZM18.55 10.8386C18.1952 11.2694 17.7065 11.4829 17.0802 11.4829C16.5046 11.4829 16.0629 11.3164 15.7625 10.987C15.4584 10.6575 15.3027 10.1688 15.2991 9.53168V6.00926H16.7363V9.48824C16.7363 10.0494 16.9897 10.3281 17.5002 10.3281C17.9889 10.3281 18.3219 10.158 18.5029 9.82129V6.00926H19.9438V11.3852H18.5934L18.55 10.8386ZM22.5394 11.3852H21.0986V3.75391H22.5394V11.3852ZM25.7288 9.35067L26.7243 6.00564H28.2665L26.1053 12.2178L25.9858 12.5002C25.6636 13.2025 25.1351 13.5537 24.3966 13.5537C24.1866 13.5537 23.9766 13.5211 23.7594 13.4595V12.3699L23.9766 12.3735C24.2481 12.3735 24.4509 12.3337 24.5848 12.2504C24.7187 12.1672 24.8237 12.0296 24.8998 11.8377L25.0699 11.3961L23.1874 6.00564H24.7332L25.7288 9.35067Z" fill="white"/>
<path d="M15.5996 35.5895H12.4971V23.6249L8.79004 24.7725V22.2492L15.2665 19.9287H15.5996V35.5895ZM30.2141 21.6845L24.1685 35.5895H20.8922L26.9488 22.4556H19.1727V19.9541H30.2141V21.6845Z" fill="black"/>
</svg>
