<svg width="20" height="20" viewBox="0 0 20 20" fill="none" xmlns="http://www.w3.org/2000/svg">
<path d="M16.8095 17.4762L17.4762 16.8095L15.7143 15.0476V12.381H14.7619V15.4286L16.8095 17.4762ZM7.61905 3.80953H11.4286V1.90476H7.61905V3.80953ZM15.2381 20C13.9206 20 12.7975 19.5356 11.8686 18.6067C10.9397 17.6778 10.4756 16.5549 10.4762 15.2381C10.4762 13.9206 10.9406 12.7975 11.8695 11.8686C12.7984 10.9397 13.9213 10.4756 15.2381 10.4762C16.5556 10.4762 17.6787 10.9406 18.6076 11.8695C19.5365 12.7984 20.0006 13.9213 20 15.2381C20 16.5556 19.5356 17.6787 18.6067 18.6076C17.6778 19.5365 16.5549 20.0006 15.2381 20ZM1.90476 18.0952C1.38095 18.0952 0.932382 17.9086 0.559049 17.5352C0.185716 17.1619 -0.000633304 16.7137 1.61695e-06 16.1905V5.71429C1.61695e-06 5.19048 0.186668 4.74191 0.560002 4.36857C0.933335 3.99524 1.38159 3.80889 1.90476 3.80953H5.71429V1.90476C5.71429 1.38095 5.90095 0.932382 6.27429 0.559049C6.64762 0.185716 7.09587 -0.000633304 7.61905 1.61695e-06H11.4286C11.9524 1.61695e-06 12.401 0.186668 12.7743 0.560002C13.1476 0.933335 13.334 1.38159 13.3333 1.90476V3.80953H17.1429C17.6667 3.80953 18.1152 3.99619 18.4886 4.36953C18.8619 4.74286 19.0483 5.19111 19.0476 5.71429V9.78572C18.4921 9.38889 17.8889 9.0873 17.2381 8.88095C16.5873 8.6746 15.9206 8.57143 15.2381 8.57143C13.3968 8.57143 11.8254 9.22222 10.5238 10.5238C9.22222 11.8254 8.57143 13.3968 8.57143 15.2381C8.57143 15.7302 8.62318 16.2184 8.72667 16.7029C8.83016 17.1873 8.9927 17.6514 9.21429 18.0952H1.90476Z" fill="#AFB3BE"/>
</svg>
