<svg width="19" height="19" viewBox="0 0 19 19" fill="none" xmlns="http://www.w3.org/2000/svg">
<path d="M9.00101 0.499515C8.29253 0.49846 7.60654 0.748177 7.06453 1.20444C6.52253 1.6607 6.15949 2.29406 6.03972 2.99234C5.91994 3.69062 6.05117 4.40876 6.41014 5.01956C6.76911 5.63036 7.33267 6.09441 8.00101 6.32951V8.49951H5.00101C4.20536 8.49951 3.4423 8.81558 2.87969 9.37819C2.31708 9.9408 2.00101 10.7039 2.00101 11.4995V12.6695C1.33351 12.9054 0.770912 13.3697 0.412646 13.9803C0.0543804 14.5909 -0.0764802 15.3085 0.043195 16.0063C0.16287 16.7041 0.525375 17.3371 1.06663 17.7934C1.60789 18.2497 2.29305 18.5 3.00101 18.5C3.70896 18.5 4.39412 18.2497 4.93538 17.7934C5.47664 17.3371 5.83914 16.7041 5.95882 16.0063C6.07849 15.3085 5.94763 14.5909 5.58937 13.9803C5.2311 13.3697 4.6685 12.9054 4.00101 12.6695V11.4995C4.00101 11.2343 4.10636 10.9799 4.2939 10.7924C4.48144 10.6049 4.73579 10.4995 5.00101 10.4995H13.001C13.2662 10.4995 13.5206 10.6049 13.7081 10.7924C13.8957 10.9799 14.001 11.2343 14.001 11.4995V12.6695C13.3335 12.9054 12.7709 13.3697 12.4126 13.9803C12.0544 14.5909 11.9235 15.3085 12.0432 16.0063C12.1629 16.7041 12.5254 17.3371 13.0666 17.7934C13.6079 18.2497 14.2931 18.5 15.001 18.5C15.709 18.5 16.3941 18.2497 16.9354 17.7934C17.4766 17.3371 17.8391 16.7041 17.9588 16.0063C18.0785 15.3085 17.9476 14.5909 17.5894 13.9803C17.2311 13.3697 16.6685 12.9054 16.001 12.6695V11.4995C16.001 10.7039 15.6849 9.9408 15.1223 9.37819C14.5597 8.81558 13.7967 8.49951 13.001 8.49951H10.001V6.32951C10.6682 6.09337 11.2304 5.62904 11.5884 5.01855C11.9464 4.40806 12.0771 3.6907 11.9574 2.99317C11.8378 2.29565 11.4755 1.66285 10.9345 1.20656C10.3935 0.750267 9.70872 0.49984 9.00101 0.499515Z" fill="#444D99"/>
</svg>
