<svg width="20" height="23" viewBox="0 0 20 23" fill="none" xmlns="http://www.w3.org/2000/svg">
<path d="M10 11.5C11.5155 11.5 12.969 10.8942 14.0406 9.81586C15.1122 8.73753 15.7143 7.27499 15.7143 5.75C15.7143 4.22501 15.1122 2.76247 14.0406 1.68414C12.969 0.605802 11.5155 0 10 0C8.48448 0 7.03103 0.605802 5.95939 1.68414C4.88775 2.76247 4.28571 4.22501 4.28571 5.75C4.28571 7.27499 4.88775 8.73753 5.95939 9.81586C7.03103 10.8942 8.48448 11.5 10 11.5ZM5.71429 13.9797C2.41071 14.9545 0 18.0271 0 21.6658C0 22.4025 0.59375 23 1.32589 23H18.6741C19.4062 23 20 22.4025 20 21.6658C20 18.0271 17.5893 14.9545 14.2857 13.9797V16.2617C15.5179 16.5807 16.4286 17.7082 16.4286 19.0469V20.8438C16.4286 21.2391 16.1071 21.5625 15.7143 21.5625H15C14.6071 21.5625 14.2857 21.2391 14.2857 20.8438C14.2857 20.4484 14.6071 20.125 15 20.125V19.0469C15 18.2518 14.3616 17.6094 13.5714 17.6094C12.7813 17.6094 12.1429 18.2518 12.1429 19.0469V20.125C12.5357 20.125 12.8571 20.4484 12.8571 20.8438C12.8571 21.2391 12.5357 21.5625 12.1429 21.5625H11.4286C11.0357 21.5625 10.7143 21.2391 10.7143 20.8438V19.0469C10.7143 17.7082 11.625 16.5807 12.8571 16.2617V13.6967C12.5893 13.6697 12.317 13.6562 12.0402 13.6562H7.95982C7.68304 13.6562 7.41071 13.6697 7.14286 13.6967V16.6346C8.17411 16.9445 8.92857 17.9059 8.92857 19.0469C8.92857 20.435 7.80804 21.5625 6.42857 21.5625C5.04911 21.5625 3.92857 20.435 3.92857 19.0469C3.92857 17.9059 4.68304 16.9445 5.71429 16.6346V13.9797ZM6.42857 20.125C6.71273 20.125 6.98525 20.0114 7.18619 19.8092C7.38712 19.607 7.5 19.3328 7.5 19.0469C7.5 18.7609 7.38712 18.4867 7.18619 18.2845C6.98525 18.0823 6.71273 17.9688 6.42857 17.9688C6.14441 17.9688 5.87189 18.0823 5.67096 18.2845C5.47003 18.4867 5.35714 18.7609 5.35714 19.0469C5.35714 19.3328 5.47003 19.607 5.67096 19.8092C5.87189 20.0114 6.14441 20.125 6.42857 20.125Z" fill="#AFB3BE"/>
</svg>
