<svg width="20" height="21" viewBox="0 0 20 21" fill="none" xmlns="http://www.w3.org/2000/svg">
<path d="M3.02503 18.777C2.99077 18.9236 2.99015 19.0762 3.02322 19.2231C3.0563 19.3701 3.12221 19.5076 3.21601 19.6255C3.30981 19.7433 3.42907 19.8384 3.56485 19.9036C3.70063 19.9688 3.8494 20.0024 4.00003 20.002C4.19756 20.002 4.39068 19.9436 4.55503 19.834L10 16.204L15.445 19.834C15.6154 19.9471 15.8162 20.0053 16.0207 20.0008C16.2251 19.9963 16.4232 19.9293 16.5884 19.8089C16.7536 19.6884 16.878 19.5203 16.9448 19.327C17.0116 19.1338 17.0176 18.9247 16.962 18.728L15.133 12.328L19.669 8.24597C19.8143 8.11516 19.9181 7.94463 19.9674 7.75548C20.0168 7.56633 20.0097 7.36685 19.9469 7.18171C19.8841 6.99657 19.7685 6.83389 19.6142 6.71379C19.46 6.59369 19.2739 6.52144 19.079 6.50597L13.378 6.05197L10.911 0.590968C10.8325 0.41508 10.7047 0.265689 10.5431 0.160825C10.3815 0.0559612 10.193 0.000105879 10.0004 1.50379e-07C9.80771 -0.000105578 9.61916 0.0555428 9.45745 0.160229C9.29574 0.264916 9.16779 0.414166 9.08903 0.589968L6.62203 6.05197L0.921026 6.50497C0.729482 6.52014 0.546364 6.59018 0.393581 6.7067C0.240798 6.82322 0.124819 6.98129 0.0595194 7.162C-0.00578038 7.34271 -0.0176359 7.5384 0.0253712 7.72567C0.0683783 7.91294 0.164427 8.08385 0.302026 8.21797L4.51603 12.325L3.02503 18.777ZM10 3.43097L12.042 7.95197L12.63 7.99897L16.603 8.31397L13.332 11.258L13.331 11.26L12.868 11.676L13.039 12.273V12.276L14.292 16.661L10 13.8V3.43097Z" fill="#AFB3BE"/>
</svg>
