<svg width="17" height="20" viewBox="0 0 17 20" fill="none" xmlns="http://www.w3.org/2000/svg">
<path d="M7.55556 12.381V20H0C0 17.9793 0.79603 16.0414 2.21297 14.6125C3.62991 13.1837 5.5517 12.381 7.55556 12.381ZM7.55556 11.4286C4.42472 11.4286 1.88889 8.87143 1.88889 5.71429C1.88889 2.55714 4.42472 0 7.55556 0C10.6864 0 13.2222 2.55714 13.2222 5.71429C13.2222 8.87143 10.6864 11.4286 7.55556 11.4286ZM16.0556 15.2381H17V20H9.44444V15.2381H10.3889V14.2857C10.3889 13.528 10.6874 12.8012 11.2188 12.2654C11.7501 11.7296 12.4708 11.4286 13.2222 11.4286C13.9737 11.4286 14.6943 11.7296 15.2257 12.2654C15.757 12.8012 16.0556 13.528 16.0556 14.2857V15.2381ZM14.1667 15.2381V14.2857C14.1667 14.0331 14.0672 13.7909 13.89 13.6123C13.7129 13.4337 13.4727 13.3333 13.2222 13.3333C12.9717 13.3333 12.7315 13.4337 12.5544 13.6123C12.3773 13.7909 12.2778 14.0331 12.2778 14.2857V15.2381H14.1667Z" fill="#444D99"/>
</svg>
