<svg width="24" height="24" viewBox="0 0 24 24" fill="none" xmlns="http://www.w3.org/2000/svg">
<g clip-path="url(#clip0_17_133)">
<path d="M21.104 7.74814C21.104 8.47357 20.8159 9.1693 20.3029 9.68225C19.7899 10.1952 19.0942 10.4834 18.3688 10.4834C17.6434 10.4834 16.9476 10.1952 16.4347 9.68225C15.9217 9.1693 15.6335 8.47357 15.6335 7.74814C15.6335 7.02271 15.9217 6.32699 16.4347 5.81403C16.9476 5.30107 17.6434 5.01289 18.3688 5.01289C19.0942 5.01289 19.7899 5.30107 20.3029 5.81403C20.8159 6.32699 21.104 7.02271 21.104 7.74814ZM1.23466 2.34739V7.30827H0.492907C0.459473 7.30836 0.426348 7.30186 0.395436 7.28912C0.364523 7.27638 0.336431 7.25766 0.312772 7.23404C0.289113 7.21042 0.270353 7.18235 0.25757 7.15146C0.244787 7.12056 0.238232 7.08745 0.238282 7.05402V0.652766C0.238282 0.436016 0.399907 0.259766 0.621532 0.259766H3.90166C4.12291 0.259766 4.28491 0.435641 4.28491 0.652016V1.02777H9.35603C9.49778 1.02777 9.61103 1.14139 9.61103 1.28127V2.72052H5.28203V2.34364C5.28203 2.12727 5.12003 1.95139 4.89803 1.95139H1.61903C1.39703 1.95139 1.23466 2.13027 1.23466 2.34739Z" fill="#444D99"/>
<path d="M11.6052 10.3122C11.6052 10.3456 11.5986 10.3787 11.5857 10.4096C11.5729 10.4404 11.5541 10.4684 11.5304 10.492C11.5067 10.5155 11.4786 10.5342 11.4476 10.5468C11.4167 10.5595 11.3836 10.5659 11.3502 10.5657H2.48705C2.45363 10.5659 2.42052 10.5594 2.3896 10.5467C2.35869 10.534 2.3306 10.5153 2.30693 10.4917C2.28327 10.4681 2.26451 10.4401 2.25172 10.4092C2.23893 10.3783 2.23237 10.3452 2.23242 10.3118V3.91058C2.23242 3.69383 2.39405 3.51758 2.61567 3.51758H5.89505C6.11705 3.51758 6.27905 3.69345 6.27905 3.90983V4.28558H11.3502C11.4915 4.28558 11.6052 4.3992 11.6052 4.53908V10.3122ZM7.67367 6.66758V5.15783H6.16317V6.66758H4.65305V8.17808H6.16317V9.6882H7.67367V8.17808H9.1838V6.66758H7.67367ZM21.0717 11.1882C21.4319 11.1879 21.7886 11.2586 22.1215 11.3962C22.4543 11.5338 22.7568 11.7357 23.0116 11.9903C23.2664 12.2449 23.4686 12.5471 23.6065 12.8799C23.7445 13.2126 23.8155 13.5693 23.8155 13.9295L23.8212 23.9543H14.6172V15.644H14.2444L12.5472 18.1763C12.2708 18.5532 11.7098 18.7358 11.2624 18.7358H7.27767C6.95991 18.7359 6.6551 18.6099 6.43023 18.3853C6.20536 18.1608 6.07882 17.8562 6.07842 17.5385C6.07842 16.8785 6.6158 16.3572 7.27767 16.3572H10.902L13.4164 12.5555C14.0187 11.636 15.1969 11.1916 16.1453 11.1916L21.0713 11.1886L21.0717 11.1882Z" fill="#444D99"/>
</g>
<defs>
<clipPath id="clip0_17_133">
<rect width="24" height="24" fill="white"/>
</clipPath>
</defs>
</svg>
