<svg width="21" height="22" viewBox="0 0 21 22" fill="none" xmlns="http://www.w3.org/2000/svg">
<path d="M5.22222 3.10547H3.11111C2.55121 3.10547 2.01424 3.32727 1.61833 3.72209C1.22242 4.1169 1 4.65238 1 5.21073V17.8423C1 18.4007 1.22242 18.9361 1.61833 19.331C2.01424 19.7258 2.55121 19.9476 3.11111 19.9476H9.12461M15.7778 12.5792V16.7897H20M15.7778 9.42126V5.21073C15.7778 4.65238 15.5554 4.1169 15.1594 3.72209C14.7635 3.32727 14.2266 3.10547 13.6667 3.10547H11.5556" stroke="#AFB3BE" stroke-width="2" stroke-linecap="round" stroke-linejoin="round"/>
<path d="M5.22266 9.42105H9.44488M5.22266 13.6316H8.38932M5.22266 3.10526C5.22266 2.54691 5.44508 2.01143 5.84099 1.61662C6.2369 1.2218 6.77387 1 7.33377 1H9.44488C10.0048 1 10.5417 1.2218 10.9377 1.61662C11.3336 2.01143 11.556 2.54691 11.556 3.10526C11.556 3.66361 11.3336 4.1991 10.9377 4.59391C10.5417 4.98872 10.0048 5.21053 9.44488 5.21053H7.33377C6.77387 5.21053 6.2369 4.98872 5.84099 4.59391C5.44508 4.1991 5.22266 3.66361 5.22266 3.10526ZM11.556 16.7895C11.556 17.9062 12.0008 18.9771 12.7926 19.7668C13.5845 20.5564 14.6584 21 15.7782 21C16.898 21 17.972 20.5564 18.7638 19.7668C19.5556 18.9771 20.0004 17.9062 20.0004 16.7895C20.0004 15.6728 19.5556 14.6018 18.7638 13.8122C17.972 13.0226 16.898 12.5789 15.7782 12.5789C14.6584 12.5789 13.5845 13.0226 12.7926 13.8122C12.0008 14.6018 11.556 15.6728 11.556 16.7895Z" stroke="#AFB3BE" stroke-width="2" stroke-linecap="round" stroke-linejoin="round"/>
</svg>
