<svg width="13" height="12" viewBox="0 0 13 12" fill="none" xmlns="http://www.w3.org/2000/svg">
<path d="M6.06385 6.84369L1.378 11.1477C1.31804 11.2047 1.24632 11.2502 1.16701 11.2815C1.08771 11.3128 1.00242 11.3293 0.916111 11.33C0.829804 11.3307 0.744212 11.3156 0.66433 11.2855C0.584447 11.2555 0.511873 11.2112 0.450843 11.1551C0.389813 11.099 0.341548 11.0323 0.308866 10.9589C0.276183 10.8855 0.259737 10.8069 0.260487 10.7276C0.261237 10.6483 0.279168 10.57 0.313234 10.4971C0.3473 10.4242 0.396818 10.3583 0.4589 10.3032L5.2195 5.92939C5.18244 5.73977 5.19585 5.54474 5.25859 5.36092C5.32133 5.17709 5.43153 5.00994 5.5798 4.87372C5.72806 4.7375 5.90999 4.63625 6.11007 4.57861C6.31014 4.52097 6.52242 4.50865 6.7288 4.5427L11.4914 0.16764C11.6139 0.0588559 11.7781 -0.00133809 11.9486 2.25756e-05C12.119 0.00138324 12.282 0.0641897 12.4025 0.174915C12.523 0.28564 12.5914 0.435424 12.5929 0.592007C12.5944 0.748589 12.5289 0.899442 12.4104 1.01207L7.72525 5.31786C7.80799 5.5308 7.82325 5.76095 7.76924 5.98154C7.71523 6.20213 7.59418 6.40411 7.42017 6.56399C7.24615 6.72387 7.02631 6.83509 6.78622 6.88471C6.54612 6.93432 6.29562 6.91971 6.06385 6.84369ZM10.9648 3.18467C12.1875 3.83203 13 4.72663 13 5.71798C13 7.69709 9.7773 9.29697 6.5 9.30115C5.83308 9.30111 5.16799 9.23706 4.51555 9.11005L5.7252 7.99927C6.17812 8.1293 6.66113 8.14298 7.12191 8.03881C7.58268 7.93465 8.00364 7.71662 8.33917 7.40834C8.67471 7.10006 8.91202 6.7133 9.02539 6.28996C9.13877 5.86662 9.12388 5.42284 8.98235 5.00672L10.9648 3.18467ZM8.26085 2.29127L7.06875 3.38653C6.64105 3.29831 6.19602 3.31088 5.77503 3.42307C5.35403 3.53525 4.97074 3.7434 4.66079 4.02818C4.35083 4.31295 4.12427 4.66511 4.00217 5.0519C3.88007 5.43869 3.86639 5.84757 3.9624 6.24052L1.86485 8.16648C0.7371 7.52629 0 6.66453 0 5.71798C0 3.73887 3.2396 2.12465 6.5 2.1348C7.0941 2.13659 7.68755 2.19094 8.26085 2.29127Z" fill="#757EC5"/>
</svg>
