<svg width="50" height="50" viewBox="0 0 50 50" fill="none" xmlns="http://www.w3.org/2000/svg">
<circle cx="24.9773" cy="24.9773" r="24.9773" fill="#747DC4"/>
<path fill-rule="evenodd" clip-rule="evenodd" d="M19.0808 17.6647C19.0808 16.1623 19.6777 14.7215 20.74 13.6591C21.8023 12.5968 23.2431 12 24.7455 12C26.2479 12 27.6887 12.5968 28.751 13.6591C29.8134 14.7215 30.4102 16.1623 30.4102 17.6647C30.4102 19.167 29.8134 20.6079 28.751 21.6702C27.6887 22.7325 26.2479 23.3293 24.7455 23.3293C23.2431 23.3293 21.8023 22.7325 20.74 21.6702C19.6777 20.6079 19.0808 19.167 19.0808 17.6647ZM19.0808 26.1617C17.2029 26.1617 15.4018 26.9077 14.0739 28.2356C12.746 29.5635 12 31.3646 12 33.2425C12 34.3693 12.4476 35.4499 13.2444 36.2467C14.0411 37.0434 15.1217 37.491 16.2485 37.491H33.2425C34.3693 37.491 35.4499 37.0434 36.2467 36.2467C37.0434 35.4499 37.491 34.3693 37.491 33.2425C37.491 31.3646 36.745 29.5635 35.4171 28.2356C34.0892 26.9077 32.2881 26.1617 30.4102 26.1617H19.0808Z" fill="white"/>
</svg>
