<svg width="63" height="63" viewBox="0 0 63 63" fill="none" xmlns="http://www.w3.org/2000/svg">
<circle cx="31.5" cy="31.5" r="31.5" fill="#209DFF"/>
<path d="M24.7931 42.2069C24.7931 41.4835 24.5372 40.8658 24.0253 40.354C23.5135 39.8421 22.8958 39.5862 22.1724 39.5862C21.449 39.5862 20.8314 39.8421 20.3195 40.354C19.8077 40.8658 19.5517 41.4835 19.5517 42.2069C19.5517 42.9303 19.8077 43.548 20.3195 44.0598C20.8314 44.5717 21.449 44.8276 22.1724 44.8276C22.8958 44.8276 23.5135 44.5717 24.0253 44.0598C24.5372 43.548 24.7931 42.9303 24.7931 42.2069ZM16.931 31.7241H24.7931V26.4828H21.5582C21.3671 26.5101 21.217 26.5715 21.1078 26.667L17.1153 30.6595C17.0198 30.8233 16.9583 30.9734 16.931 31.1099V31.7241ZM43.1379 42.2069C43.1379 41.4835 42.882 40.8658 42.3702 40.354C41.8583 39.8421 41.2407 39.5862 40.5172 39.5862C39.7938 39.5862 39.1762 39.8421 38.6643 40.354C38.1525 40.8658 37.8966 41.4835 37.8966 42.2069C37.8966 42.9303 38.1525 43.548 38.6643 44.0598C39.1762 44.5717 39.7938 44.8276 40.5172 44.8276C41.2407 44.8276 41.8583 44.5717 42.3702 44.0598C42.882 43.548 43.1379 42.9303 43.1379 42.2069ZM45.7586 28.4483V24.5172C45.7586 24.3261 45.6972 24.1692 45.5744 24.0463C45.4515 23.9235 45.2945 23.8621 45.1034 23.8621H40.5172V19.2759C40.5172 19.0848 40.4558 18.9278 40.333 18.805C40.2101 18.6821 40.0532 18.6207 39.8621 18.6207H35.931C35.7399 18.6207 35.583 18.6821 35.4601 18.805C35.3373 18.9278 35.2759 19.0848 35.2759 19.2759V23.8621H30.6897C30.4986 23.8621 30.3416 23.9235 30.2187 24.0463C30.0959 24.1692 30.0345 24.3261 30.0345 24.5172V28.4483C30.0345 28.6394 30.0959 28.7963 30.2187 28.9192C30.3416 29.042 30.4986 29.1034 30.6897 29.1034H35.2759V33.6897C35.2759 33.8807 35.3373 34.0377 35.4601 34.1606C35.583 34.2834 35.7399 34.3448 35.931 34.3448H39.8621C40.0532 34.3448 40.2101 34.2834 40.333 34.1606C40.4558 34.0377 40.5172 33.8807 40.5172 33.6897V29.1034H45.1034C45.2945 29.1034 45.4515 29.042 45.5744 28.9192C45.6972 28.7963 45.7586 28.6394 45.7586 28.4483ZM51 17.3103V40.8966C51 41.2514 50.8703 41.5585 50.611 41.8179C50.3517 42.0772 50.0445 42.2069 49.6897 42.2069H45.7586C45.7586 43.6537 45.2468 44.889 44.2231 45.9127C43.1994 46.9364 41.9641 47.4483 40.5172 47.4483C39.0704 47.4483 37.8351 46.9364 36.8114 45.9127C35.7877 44.889 35.2759 43.6537 35.2759 42.2069H27.4138C27.4138 43.6537 26.9019 44.889 25.8782 45.9127C24.8545 46.9364 23.6193 47.4483 22.1724 47.4483C20.7256 47.4483 19.4903 46.9364 18.4666 45.9127C17.4429 44.889 16.931 43.6537 16.931 42.2069H14.3103C13.9555 42.2069 13.6483 42.0772 13.389 41.8179C13.1297 41.5585 13 41.2514 13 40.8966C13 40.5417 13.1297 40.2346 13.389 39.9752C13.6483 39.7159 13.9555 39.5862 14.3103 39.5862V31.069C14.3103 30.7141 14.3991 30.3182 14.5765 29.8815C14.754 29.4447 14.9723 29.0966 15.2317 28.8373L19.2856 24.7834C19.5449 24.5241 19.893 24.3057 20.3297 24.1282C20.7665 23.9508 21.1624 23.8621 21.5172 23.8621H24.7931V17.3103C24.7931 16.9555 24.9228 16.6483 25.1821 16.389C25.4415 16.1297 25.7486 16 26.1034 16H49.6897C50.0445 16 50.3517 16.1297 50.611 16.389C50.8703 16.6483 51 16.9555 51 17.3103Z" fill="white"/>
</svg>
