<svg width="10" height="14" viewBox="0 0 10 14" fill="none" xmlns="http://www.w3.org/2000/svg">
<path d="M0.537112 13.1811C0.330079 13.0039 0.226562 12.7941 0.226562 12.5518C0.226562 12.3099 0.330079 12.1004 0.537112 11.9232L6.60319 6.73226L0.516409 1.52362C0.323178 1.35826 0.226562 1.15157 0.226562 0.90354C0.226562 0.65551 0.330079 0.442912 0.537112 0.265747C0.744146 0.0885824 0.989273 0 1.27249 0C1.55516 0 1.80001 0.0885824 2.00705 0.265747L8.96336 6.2362C9.04618 6.30707 9.10497 6.38384 9.13976 6.46651C9.17399 6.54919 9.1911 6.63777 9.1911 6.73226C9.1911 6.82675 9.17399 6.91533 9.13976 6.99801C9.10497 7.08069 9.04618 7.15746 8.96336 7.22832L1.98634 13.1988C1.79311 13.3641 1.55516 13.4468 1.27249 13.4468C0.989273 13.4468 0.744146 13.3582 0.537112 13.1811Z" fill="#EF832C"/>
</svg>
