<svg width="11" height="19" viewBox="0 0 11 19" fill="none" xmlns="http://www.w3.org/2000/svg">
<path d="M10.4502 0.387548C10.7002 0.637548 10.8252 0.933548 10.8252 1.27555C10.8252 1.61755 10.7002 1.91322 10.4502 2.16255L3.12519 9.48755L10.4752 16.8375C10.7085 17.0709 10.8252 17.3625 10.8252 17.7125C10.8252 18.0625 10.7002 18.3625 10.4502 18.6125C10.2002 18.8625 9.9042 18.9875 9.5622 18.9875C9.2202 18.9875 8.92453 18.8625 8.6752 18.6125L0.275193 10.1875C0.175193 10.0875 0.104194 9.97922 0.062194 9.86255C0.0201942 9.74588 -0.000472888 9.62088 0.000193719 9.48755C0.000193707 9.35422 0.0211936 9.22922 0.0631934 9.11255C0.105193 8.99588 0.17586 8.88755 0.275193 8.78755L8.70019 0.362549C8.93353 0.129215 9.22119 0.0125486 9.56319 0.0125486C9.90519 0.0125485 10.2009 0.137549 10.4502 0.387548Z" fill="#444D99"/>
</svg>
