<svg width="12" height="19" viewBox="0 0 12 19" fill="none" xmlns="http://www.w3.org/2000/svg">
<path d="M1.2002 18.6125C0.950195 18.3625 0.825195 18.0665 0.825195 17.7245C0.825195 17.3825 0.950195 17.0868 1.2002 16.8375L8.5252 9.51245L1.1752 2.16245C0.941862 1.92912 0.825195 1.63745 0.825195 1.28745C0.825195 0.937451 0.950195 0.637451 1.2002 0.387451C1.4502 0.137451 1.7462 0.0124512 2.0882 0.0124512C2.4302 0.0124512 2.72586 0.137451 2.9752 0.387451L11.3752 8.81245C11.4752 8.91245 11.5462 9.02078 11.5882 9.13745C11.6302 9.25412 11.6509 9.37912 11.6502 9.51245C11.6502 9.64578 11.6292 9.77078 11.5872 9.88745C11.5452 10.0041 11.4745 10.1125 11.3752 10.2125L2.95019 18.6375C2.71686 18.8708 2.42919 18.9875 2.08719 18.9875C1.74519 18.9875 1.44953 18.8625 1.2002 18.6125Z" fill="#444D99"/>
</svg>
