<svg width="104" height="104" viewBox="0 0 104 104" fill="none" xmlns="http://www.w3.org/2000/svg">
<circle cx="52" cy="52" r="52" fill="url(#paint0_linear_1_3906)"/>
<path d="M63 42.3913H59.083L57.1571 39.503C57.0539 39.3484 56.9141 39.2216 56.7502 39.1338C56.5863 39.0461 56.4033 39.0001 56.2174 39H47.1739C46.988 39.0001 46.805 39.0461 46.6411 39.1338C46.4772 39.2216 46.3374 39.3484 46.2342 39.503L44.3068 42.3913H40.3913C39.4919 42.3913 38.6293 42.7486 37.9933 43.3846C37.3573 44.0206 37 44.8832 37 45.7826V61.6087C37 62.5081 37.3573 63.3707 37.9933 64.0067C38.6293 64.6427 39.4919 65 40.3913 65H63C63.8994 65 64.762 64.6427 65.398 64.0067C66.034 63.3707 66.3913 62.5081 66.3913 61.6087V45.7826C66.3913 44.8832 66.034 44.0206 65.398 43.3846C64.762 42.7486 63.8994 42.3913 63 42.3913ZM56.7826 53.1304C56.7826 54.1365 56.4843 55.1201 55.9253 55.9566C55.3663 56.7931 54.5719 57.4451 53.6423 57.8302C52.7128 58.2152 51.69 58.3159 50.7032 58.1196C49.7165 57.9234 48.8101 57.4389 48.0986 56.7275C47.3872 56.016 46.9027 55.1096 46.7064 54.1229C46.5102 53.1361 46.6109 52.1133 46.9959 51.1837C47.3809 50.2542 48.0329 49.4597 48.8695 48.9008C49.706 48.3418 50.6895 48.0435 51.6957 48.0435C53.0448 48.0435 54.3387 48.5794 55.2927 49.5334C56.2467 50.4874 56.7826 51.7813 56.7826 53.1304Z" fill="black"/>
<defs>
<linearGradient id="paint0_linear_1_3906" x1="52" y1="0" x2="52" y2="104" gradientUnits="userSpaceOnUse">
<stop stop-color="#F3F4F7"/>
<stop offset="1" stop-color="#EBECF0"/>
</linearGradient>
</defs>
</svg>
