<svg width="17" height="17" viewBox="0 0 17 17" fill="none" xmlns="http://www.w3.org/2000/svg">
<path d="M7.36607 15.9519L0.294643 8.88049C0.1875 8.77335 0.111428 8.65728 0.0664284 8.53228C0.0221426 8.40728 0 8.27335 0 8.13049C0 7.98764 0.0221426 7.85371 0.0664284 7.72871C0.111428 7.60371 0.1875 7.48764 0.294643 7.38049L7.36607 0.309066C7.5625 0.112637 7.80786 0.00978022 8.10214 0.000494507C8.39714 -0.00807692 8.65179 0.0947798 8.86607 0.309066C9.08036 0.505494 9.19214 0.750852 9.20143 1.04514C9.21 1.34014 9.10714 1.59478 8.89286 1.80907L3.64286 7.05907H15.6161C15.9196 7.05907 16.1743 7.16157 16.38 7.36657C16.585 7.57228 16.6875 7.82692 16.6875 8.13049C16.6875 8.43407 16.585 8.68835 16.38 8.89335C16.1743 9.09906 15.9196 9.20192 15.6161 9.20192H3.64286L8.89286 14.4519C9.08929 14.6484 9.19214 14.8984 9.20143 15.2019C9.21 15.5055 9.10714 15.7555 8.89286 15.9519C8.69643 16.1662 8.44643 16.2734 8.14286 16.2734C7.83929 16.2734 7.58036 16.1662 7.36607 15.9519Z" fill="white"/>
</svg>
