<svg width="74" height="73" viewBox="0 0 74 73" fill="none" xmlns="http://www.w3.org/2000/svg">
<circle cx="37" cy="36.5" r="36.5" fill="white"/>
<path d="M55.8 45.45C55.8 46.248 55.359 46.941 54.687 47.298L38.097 56.622C37.761 56.874 37.341 57 36.9 57C36.459 57 36.039 56.874 35.703 56.622L19.113 47.298C18.7763 47.1211 18.4946 46.8553 18.2984 46.5295C18.1021 46.2037 17.999 45.8303 18 45.45V26.55C18 25.752 18.441 25.059 19.113 24.702L35.703 15.378C36.039 15.126 36.459 15 36.9 15C37.341 15 37.761 15.126 38.097 15.378L54.687 24.702C55.359 25.059 55.8 25.752 55.8 26.55V45.45ZM36.9 19.515L24.384 26.55L36.9 33.585L49.416 26.55L36.9 19.515ZM22.2 44.211L34.8 51.309V37.218L22.2 30.141V44.211ZM51.6 44.211V30.141L39 37.218V51.309L51.6 44.211Z" fill="#9B65D8"/>
</svg>
