<svg width="74" height="73" viewBox="0 0 74 73" fill="none" xmlns="http://www.w3.org/2000/svg">
<circle cx="37" cy="36.5" r="36.5" fill="white"/>
<path d="M50.5 43.263C50.5 50.85 44.232 57 36.5 57C28.768 57 22.5 50.85 22.5 43.263C22.5 31.243 36.5 17 36.5 17C36.5 17 50.5 31.242 50.5 43.263Z" fill="#FA686B"/>
<path fill-rule="evenodd" clip-rule="evenodd" d="M36.5 55C43.163 55 48.5 49.71 48.5 43.263C48.5 37.906 45.322 31.777 41.855 26.761C40.2065 24.3866 38.4184 22.1122 36.5 19.95C34.5816 22.1122 32.7935 24.3866 31.145 26.761C27.678 31.777 24.5 37.906 24.5 43.263C24.5 49.709 29.837 55 36.5 55ZM35.14 18.47C31.622 22.409 22.5 33.56 22.5 43.263C22.5 50.85 28.768 57 36.5 57C44.232 57 50.5 50.85 50.5 43.263C50.5 33.56 41.378 22.409 37.86 18.47C37.02 17.53 36.5 17 36.5 17C36.5 17 35.98 17.53 35.14 18.47Z" fill="#FA686B"/>
</svg>
