<svg width="22" height="24" viewBox="0 0 22 24" fill="none" xmlns="http://www.w3.org/2000/svg">
<path d="M10.8 14.4C10.46 14.4 10.1748 14.2848 9.9444 14.0544C9.714 13.824 9.5992 13.5392 9.6 13.2C9.6 12.86 9.7152 12.5748 9.9456 12.3444C10.176 12.114 10.4608 11.9992 10.8 12C11.14 12 11.4252 12.1152 11.6556 12.3456C11.886 12.576 12.0008 12.8608 12 13.2C12 13.54 11.8848 13.8252 11.6544 14.0556C11.424 14.286 11.1392 14.4008 10.8 14.4ZM6 14.4C5.66 14.4 5.3748 14.2848 5.1444 14.0544C4.914 13.824 4.7992 13.5392 4.8 13.2C4.8 12.86 4.9152 12.5748 5.1456 12.3444C5.376 12.114 5.6608 11.9992 6 12C6.34 12 6.6252 12.1152 6.8556 12.3456C7.086 12.576 7.2008 12.8608 7.2 13.2C7.2 13.54 7.0848 13.8252 6.8544 14.0556C6.624 14.286 6.3392 14.4008 6 14.4ZM15.6 14.4C15.26 14.4 14.9748 14.2848 14.7444 14.0544C14.514 13.824 14.3992 13.5392 14.4 13.2C14.4 12.86 14.5152 12.5748 14.7456 12.3444C14.976 12.114 15.2608 11.9992 15.6 12C15.94 12 16.2252 12.1152 16.4556 12.3456C16.686 12.576 16.8008 12.8608 16.8 13.2C16.8 13.54 16.6848 13.8252 16.4544 14.0556C16.224 14.286 15.9392 14.4008 15.6 14.4ZM10.8 19.2C10.46 19.2 10.1748 19.0848 9.9444 18.8544C9.714 18.624 9.5992 18.3392 9.6 18C9.6 17.66 9.7152 17.3748 9.9456 17.1444C10.176 16.914 10.4608 16.7992 10.8 16.8C11.14 16.8 11.4252 16.9152 11.6556 17.1456C11.886 17.376 12.0008 17.6608 12 18C12 18.34 11.8848 18.6252 11.6544 18.8556C11.424 19.086 11.1392 19.2008 10.8 19.2ZM6 19.2C5.66 19.2 5.3748 19.0848 5.1444 18.8544C4.914 18.624 4.7992 18.3392 4.8 18C4.8 17.66 4.9152 17.3748 5.1456 17.1444C5.376 16.914 5.6608 16.7992 6 16.8C6.34 16.8 6.6252 16.9152 6.8556 17.1456C7.086 17.376 7.2008 17.6608 7.2 18C7.2 18.34 7.0848 18.6252 6.8544 18.8556C6.624 19.086 6.3392 19.2008 6 19.2ZM15.6 19.2C15.26 19.2 14.9748 19.0848 14.7444 18.8544C14.514 18.624 14.3992 18.3392 14.4 18C14.4 17.66 14.5152 17.3748 14.7456 17.1444C14.976 16.914 15.2608 16.7992 15.6 16.8C15.94 16.8 16.2252 16.9152 16.4556 17.1456C16.686 17.376 16.8008 17.6608 16.8 18C16.8 18.34 16.6848 18.6252 16.4544 18.8556C16.224 19.086 15.9392 19.2008 15.6 19.2ZM2.4 24C1.74 24 1.1748 23.7648 0.704402 23.2944C0.234002 22.824 -0.000797962 22.2592 2.03735e-06 21.6V4.8C2.03735e-06 4.14 0.235202 3.5748 0.705602 3.1044C1.176 2.634 1.7408 2.3992 2.4 2.4H3.6V1.2C3.6 0.860004 3.7152 0.574804 3.9456 0.344404C4.176 0.114004 4.4608 -0.000795848 4.8 4.15225e-06C5.14 4.15225e-06 5.4252 0.115204 5.6556 0.345604C5.886 0.576004 6.0008 0.860804 6 1.2V2.4H15.6V1.2C15.6 0.860004 15.7152 0.574804 15.9456 0.344404C16.176 0.114004 16.4608 -0.000795848 16.8 4.15225e-06C17.14 4.15225e-06 17.4252 0.115204 17.6556 0.345604C17.886 0.576004 18.0008 0.860804 18 1.2V2.4H19.2C19.86 2.4 20.4252 2.6352 20.8956 3.1056C21.366 3.576 21.6008 4.1408 21.6 4.8V21.6C21.6 22.26 21.3648 22.8252 20.8944 23.2956C20.424 23.766 19.8592 24.0008 19.2 24H2.4ZM2.4 21.6H19.2V9.6H2.4V21.6ZM2.4 7.2H19.2V4.8H2.4V7.2Z" fill="#4E57A0"/>
</svg>
