<svg width="20" height="20" viewBox="0 0 20 20" fill="none" xmlns="http://www.w3.org/2000/svg">
<circle cx="10" cy="10" r="10" fill="#AFB3BE"/>
<path d="M14.4167 15C13.2222 15 12.058 14.7337 10.9239 14.2011C9.78944 13.6689 8.78481 12.9652 7.91 12.09C7.03481 11.2152 6.33111 10.2106 5.79889 9.07611C5.2663 7.94204 5 6.77778 5 5.58333C5 5.41667 5.05556 5.27778 5.16667 5.16667C5.27778 5.05556 5.41667 5 5.58333 5H7.83333C7.96296 5 8.0787 5.04167 8.18056 5.125C8.28241 5.20833 8.34259 5.31481 8.36111 5.44444L8.72222 7.38889C8.74074 7.51852 8.73852 7.63648 8.71556 7.74278C8.69222 7.84944 8.63889 7.94444 8.55556 8.02778L7.22222 9.38889C7.61111 10.0556 8.09722 10.6806 8.68056 11.2639C9.26389 11.8472 9.90741 12.3519 10.6111 12.7778L11.9167 11.4722C12 11.3889 12.1089 11.3263 12.2433 11.2844C12.3774 11.243 12.5093 11.2315 12.6389 11.25L14.5556 11.6389C14.6852 11.6667 14.7917 11.7291 14.875 11.8261C14.9583 11.9235 15 12.037 15 12.1667V14.4167C15 14.5833 14.9444 14.7222 14.8333 14.8333C14.7222 14.9444 14.5833 15 14.4167 15Z" fill="white"/>
</svg>
