<svg width="21" height="21" viewBox="0 0 21 21" fill="none" xmlns="http://www.w3.org/2000/svg">
<path d="M3.00166 2.952C4.64245 1.3005 6.80802 0.273208 9.12504 0.0472367C11.4421 -0.178734 13.7653 0.410773 15.6943 1.71413C17.6232 3.01748 19.037 4.953 19.6919 7.18701C20.3468 9.42101 20.2017 11.8135 19.2817 13.952C19.1858 14.1508 19.1543 14.3745 19.1917 14.592L20.0717 18.822C20.1056 18.9842 20.0986 19.1522 20.0515 19.3111C20.0044 19.4699 19.9185 19.6146 19.8017 19.732C19.7059 19.8271 19.5918 19.9018 19.4663 19.9517C19.3409 20.0015 19.2066 20.0254 19.0717 20.022H18.8717L14.5917 19.162C14.3741 19.1358 14.1535 19.1669 13.9517 19.252C11.8132 20.172 9.42067 20.3171 7.18667 19.6622C4.95267 19.0074 3.01714 17.5936 1.71379 15.6646C0.410437 13.7356 -0.179071 11.4124 0.0468998 9.09537C0.272871 6.77836 1.30016 4.61278 2.95166 2.972L3.00166 2.952ZM14.0717 11.022C14.2694 11.022 14.4628 10.9633 14.6272 10.8535C14.7917 10.7436 14.9199 10.5874 14.9955 10.4047C15.0712 10.222 15.091 10.0209 15.0524 9.82691C15.0139 9.63292 14.9186 9.45474 14.7788 9.31489C14.6389 9.17504 14.4607 9.0798 14.2667 9.04121C14.0728 9.00262 13.8717 9.02243 13.689 9.09812C13.5062 9.1738 13.3501 9.30198 13.2402 9.46642C13.1303 9.63087 13.0717 9.82421 13.0717 10.022C13.0717 10.2872 13.177 10.5416 13.3646 10.7291C13.5521 10.9166 13.8064 11.022 14.0717 11.022ZM10.0717 11.022C10.2694 11.022 10.4628 10.9633 10.6272 10.8535C10.7917 10.7436 10.9199 10.5874 10.9955 10.4047C11.0712 10.222 11.091 10.0209 11.0524 9.82691C11.0139 9.63292 10.9186 9.45474 10.7788 9.31489C10.6389 9.17504 10.4607 9.0798 10.2667 9.04121C10.0728 9.00262 9.8717 9.02243 9.68898 9.09812C9.50625 9.1738 9.35007 9.30198 9.24019 9.46642C9.13031 9.63087 9.07166 9.82421 9.07166 10.022C9.07166 10.2872 9.17702 10.5416 9.36455 10.7291C9.55209 10.9166 9.80644 11.022 10.0717 11.022ZM6.07166 11.022C6.26944 11.022 6.46278 10.9633 6.62723 10.8535C6.79168 10.7436 6.91985 10.5874 6.99554 10.4047C7.07123 10.222 7.09103 10.0209 7.05244 9.82691C7.01386 9.63292 6.91862 9.45474 6.77877 9.31489C6.63891 9.17504 6.46073 9.0798 6.26675 9.04121C6.07277 9.00262 5.8717 9.02243 5.68898 9.09812C5.50625 9.1738 5.35007 9.30198 5.24019 9.46642C5.13031 9.63087 5.07166 9.82421 5.07166 10.022C5.07166 10.2872 5.17702 10.5416 5.36455 10.7291C5.55209 10.9166 5.80644 11.022 6.07166 11.022Z" fill="#AFB3BE"/>
</svg>
