<svg width="18" height="18" viewBox="0 0 18 18" fill="none" xmlns="http://www.w3.org/2000/svg">
<path d="M14.4702 15.0071C14.3998 15.0072 14.3301 14.9934 14.2651 14.9664C14.2001 14.9395 14.141 14.8999 14.0914 14.85L2.30073 3.05937C2.20447 2.95805 2.15159 2.82313 2.15338 2.68337C2.15517 2.54362 2.21148 2.4101 2.31031 2.31127C2.40914 2.21244 2.54266 2.15613 2.68242 2.15434C2.82217 2.15255 2.95709 2.20543 3.05841 2.30169L14.849 14.0923C14.9239 14.1673 14.9749 14.2627 14.9956 14.3667C15.0163 14.4706 15.0057 14.5783 14.9651 14.6762C14.9246 14.7741 14.8559 14.8578 14.7678 14.9167C14.6797 14.9756 14.5762 15.007 14.4702 15.0071ZM8.5635 12.8633C7.17375 12.8633 5.83357 12.452 4.58014 11.6407C3.43893 10.9038 2.41161 9.84836 1.60904 8.59259V8.58991C2.27695 7.63293 3.00851 6.82366 3.79432 6.17116C3.80143 6.16522 3.80723 6.15786 3.81135 6.14957C3.81548 6.14127 3.81783 6.1322 3.81827 6.12295C3.81871 6.11369 3.81723 6.10445 3.81391 6.0958C3.8106 6.08714 3.80553 6.07927 3.79901 6.07268L3.13177 5.40644C3.11991 5.39449 3.10399 5.38744 3.08717 5.38669C3.07035 5.38595 3.05386 5.39156 3.041 5.40242C2.20627 6.10584 1.43151 6.9687 0.727087 7.97894C0.605893 8.15289 0.539147 8.35894 0.53533 8.57091C0.531513 8.78288 0.590797 8.9912 0.705649 9.16939C1.59028 10.5538 2.72881 11.7198 3.99765 12.5408C5.42625 13.4663 6.96372 13.9352 8.5635 13.9352C9.42701 13.9325 10.2844 13.7902 11.1025 13.5138C11.1133 13.5102 11.123 13.5038 11.1306 13.4954C11.1383 13.4869 11.1437 13.4767 11.1462 13.4656C11.1488 13.4545 11.1485 13.4429 11.1454 13.4319C11.1422 13.421 11.1364 13.411 11.1283 13.403L10.4054 12.6801C10.3888 12.6639 10.3682 12.6523 10.3457 12.6464C10.3232 12.6405 10.2996 12.6406 10.2772 12.6466C9.71735 12.7908 9.14157 12.8636 8.5635 12.8633ZM16.4411 7.99301C15.5548 6.62235 14.4049 5.45803 13.116 4.62565C11.69 3.70384 10.1157 3.21647 8.5635 3.21647C7.70914 3.21799 6.86112 3.36327 6.05498 3.64622C6.04423 3.64996 6.03462 3.65637 6.02704 3.66485C6.01946 3.67333 6.01417 3.6836 6.01166 3.69469C6.00914 3.70578 6.0095 3.71733 6.01268 3.72825C6.01586 3.73917 6.02177 3.74909 6.02985 3.7571L6.75169 4.47894C6.7685 4.49546 6.78936 4.50725 6.81218 4.51313C6.835 4.51901 6.85896 4.51877 6.88166 4.51243C7.42998 4.36411 7.99547 4.28876 8.5635 4.28834C9.92645 4.28834 11.2626 4.7047 12.5345 5.5277C13.6971 6.27801 14.7365 7.33247 15.5411 8.57584C15.5417 8.57661 15.542 8.57755 15.542 8.57852C15.542 8.57949 15.5417 8.58044 15.5411 8.5812C14.957 9.50065 14.2323 10.3227 13.3933 11.0174C13.3861 11.0233 13.3802 11.0306 13.3761 11.039C13.3719 11.0473 13.3695 11.0564 13.369 11.0657C13.3685 11.075 13.37 11.0843 13.3733 11.093C13.3766 11.1017 13.3817 11.1096 13.3883 11.1162L14.0548 11.7824C14.0666 11.7943 14.0825 11.8014 14.0992 11.8022C14.116 11.803 14.1324 11.7975 14.1453 11.7868C15.041 11.0326 15.8163 10.1462 16.4445 9.15801C16.5555 8.98388 16.6142 8.78153 16.6136 8.57502C16.613 8.3685 16.5531 8.1665 16.4411 7.99301Z" fill="#757EC5"/>
<path d="M8.57519 5.35938C8.33433 5.35925 8.09421 5.38621 7.85938 5.43977C7.84752 5.44223 7.83655 5.44786 7.82763 5.45607C7.81872 5.46427 7.8122 5.47474 7.80876 5.48635C7.80532 5.49797 7.8051 5.5103 7.80811 5.52203C7.81113 5.53377 7.81727 5.54446 7.82588 5.55298L11.5972 9.3233C11.6057 9.33191 11.6164 9.33806 11.6282 9.34107C11.6399 9.34409 11.6522 9.34386 11.6638 9.34043C11.6755 9.33699 11.6859 9.33047 11.6941 9.32155C11.7023 9.31264 11.708 9.30167 11.7104 9.28981C11.8178 8.81887 11.8177 8.32978 11.7101 7.85889C11.6026 7.38799 11.3903 6.94738 11.0891 6.56977C10.7879 6.19216 10.4055 5.88727 9.97025 5.67772C9.53504 5.46817 9.05822 5.35937 8.57519 5.35938ZM5.55317 7.8267C5.54465 7.81809 5.53396 7.81195 5.52222 7.80893C5.51049 7.80591 5.49816 7.80614 5.48654 7.80957C5.47493 7.81301 5.46446 7.81953 5.45625 7.82845C5.44805 7.83736 5.44242 7.84833 5.43995 7.86019C5.31848 8.39089 5.33373 8.94374 5.48429 9.46693C5.63484 9.99012 5.91576 10.4665 6.30072 10.8515C6.68568 11.2364 7.16208 11.5174 7.68527 11.6679C8.20846 11.8185 8.76131 11.8337 9.29201 11.7122C9.30387 11.7098 9.31484 11.7041 9.32375 11.6959C9.33267 11.6877 9.33919 11.6773 9.34262 11.6657C9.34606 11.654 9.34629 11.6417 9.34327 11.63C9.34025 11.6182 9.33411 11.6075 9.3255 11.599L5.55317 7.8267Z" fill="#757EC5"/>
</svg>
