<svg width="32" height="32" viewBox="0 0 32 32" fill="none" xmlns="http://www.w3.org/2000/svg">
<path d="M21.236 15.927C24.8993 15.927 27.8724 12.9539 27.8724 9.29066C27.8724 5.62739 24.8993 2.6543 21.236 2.6543C17.5727 2.6543 14.5996 5.62739 14.5996 9.29066C14.5996 12.9539 17.5727 15.927 21.236 15.927ZM28.4696 23.3598C27.952 22.8288 27.3016 22.5634 26.5451 22.5634H17.2542L14.4934 21.5945L14.9314 20.3468L17.2542 21.2361H20.9705C21.4351 21.2361 21.8067 21.0503 22.112 20.745C22.4173 20.4398 22.5633 20.0681 22.5633 19.6567C22.5633 18.9399 22.2182 18.4488 21.528 18.1701L11.8787 14.5998H9.29054V26.5452L18.5814 29.1997L29.2394 25.2179C29.2527 24.5145 28.9873 23.8907 28.4696 23.3598ZM6.63599 14.5998H1.30566V29.1997H6.63599V14.5998Z" fill="#ABB2EC"/>
</svg>
