<svg width="60" height="60" viewBox="0 0 60 60" fill="none" xmlns="http://www.w3.org/2000/svg">
<circle cx="30" cy="30" r="30" fill="#E51C23"/>
<path d="M19.473 15.7363L30 26.2633L40.4724 15.7909C40.7037 15.5447 40.9824 15.3477 41.2917 15.2118C41.601 15.0759 41.9346 15.0039 42.2724 15C42.9957 15 43.6893 15.2873 44.2008 15.7988C44.7122 16.3102 44.9996 17.0039 44.9996 17.7272C45.0059 18.0616 44.9439 18.3937 44.8173 18.7032C44.6906 19.0127 44.5021 19.2931 44.2632 19.5271L33.6544 29.9996L44.2632 40.6083C44.7127 41.0481 44.9763 41.6435 44.9996 42.2719C44.9996 42.9952 44.7122 43.6889 44.2008 44.2003C43.6893 44.7118 42.9957 44.9991 42.2724 44.9991C41.9248 45.0135 41.578 44.9555 41.2541 44.8288C40.9301 44.702 40.6361 44.5093 40.3906 44.2628L30 33.7358L19.5003 44.2355C19.2699 44.4735 18.9946 44.6635 18.6903 44.7946C18.3861 44.9257 18.0589 44.9952 17.7276 44.9991C17.0043 44.9991 16.3107 44.7118 15.7992 44.2003C15.2878 43.6889 15.0004 42.9952 15.0004 42.2719C14.9941 41.9376 15.0561 41.6054 15.1827 41.2959C15.3094 40.9864 15.4979 40.706 15.7368 40.472L26.3456 29.9996L15.7368 19.3908C15.2873 18.951 15.0237 18.3556 15.0004 17.7272C15.0004 17.0039 15.2878 16.3102 15.7992 15.7988C16.3107 15.2873 17.0043 15 17.7276 15C18.3822 15.0082 19.0094 15.2727 19.473 15.7363Z" fill="white"/>
</svg>
