<svg width="17" height="18" viewBox="0 0 17 18" fill="none" xmlns="http://www.w3.org/2000/svg">
<path d="M3.27735 18C2.72735 18 2.25635 17.804 1.86435 17.412C1.47235 17.02 1.27668 16.5493 1.27735 16V3C0.994014 3 0.756347 2.904 0.564347 2.712C0.372347 2.52 0.276681 2.28267 0.277347 2C0.277347 1.71667 0.373347 1.479 0.565347 1.287C0.757347 1.095 0.994681 0.999337 1.27735 1H5.27735C5.27735 0.71667 5.37335 0.479003 5.56535 0.287003C5.75735 0.0950034 5.99468 -0.000663206 6.27735 3.46021e-06H10.2773C10.5607 3.46021e-06 10.7983 0.0960036 10.9903 0.288004C11.1823 0.480004 11.278 0.717337 11.2773 1H15.2773C15.5607 1 15.7983 1.096 15.9903 1.288C16.1823 1.48 16.278 1.71734 16.2773 2C16.2773 2.28334 16.1813 2.521 15.9893 2.713C15.7973 2.905 15.56 3.00067 15.2773 3V16C15.2773 16.55 15.0813 17.021 14.6893 17.413C14.2973 17.805 13.8267 18.0007 13.2773 18H3.27735ZM5.27735 13C5.27735 13.2833 5.37335 13.521 5.56535 13.713C5.75735 13.905 5.99468 14.0007 6.27735 14C6.56068 14 6.79835 13.904 6.99035 13.712C7.18235 13.52 7.27801 13.2827 7.27735 13V6C7.27735 5.71667 7.18135 5.479 6.98935 5.287C6.79735 5.095 6.56001 4.99934 6.27735 5C5.99401 5 5.75635 5.096 5.56435 5.288C5.37235 5.48 5.27668 5.71734 5.27735 6V13ZM9.27735 13C9.27735 13.2833 9.37335 13.521 9.56535 13.713C9.75735 13.905 9.99468 14.0007 10.2773 14C10.5607 14 10.7983 13.904 10.9903 13.712C11.1823 13.52 11.278 13.2827 11.2773 13V6C11.2773 5.71667 11.1813 5.479 10.9893 5.287C10.7973 5.095 10.56 4.99934 10.2773 5C9.99401 5 9.75635 5.096 9.56435 5.288C9.37235 5.48 9.27668 5.71734 9.27735 6V13Z" fill="#FD482F"/>
</svg>
