<svg width="17" height="18" viewBox="0 0 17 18" fill="none" xmlns="http://www.w3.org/2000/svg">
<path d="M7.07143 2.57143H9.64286C9.64286 2.23044 9.5074 1.90341 9.26628 1.66229C9.02516 1.42117 8.69814 1.28571 8.35714 1.28571C8.01615 1.28571 7.68912 1.42117 7.44801 1.66229C7.20689 1.90341 7.07143 2.23044 7.07143 2.57143ZM5.78571 2.57143C5.78571 1.88944 6.05663 1.23539 6.53887 0.753154C7.0211 0.270918 7.67516 0 8.35714 0C9.03913 0 9.69318 0.270918 10.1754 0.753154C10.6577 1.23539 10.9286 1.88944 10.9286 2.57143H16.0714C16.2419 2.57143 16.4054 2.63916 16.526 2.75972C16.6466 2.88028 16.7143 3.04379 16.7143 3.21429C16.7143 3.38478 16.6466 3.5483 16.526 3.66885C16.4054 3.78941 16.2419 3.85714 16.0714 3.85714H15.3463L13.797 15.2203C13.6919 15.9903 13.3114 16.6962 12.7259 17.2073C12.1403 17.7184 11.3895 18 10.6123 18H6.102C5.32481 18 4.57394 17.7184 3.98841 17.2073C3.40289 16.6962 3.02236 15.9903 2.91729 15.2203L1.368 3.85714H0.642857C0.472361 3.85714 0.308848 3.78941 0.188288 3.66885C0.0677294 3.5483 0 3.38478 0 3.21429C0 3.04379 0.0677294 2.88028 0.188288 2.75972C0.308848 2.63916 0.472361 2.57143 0.642857 2.57143H5.78571ZM7.07143 7.07143C7.07143 6.90093 7.0037 6.73742 6.88314 6.61686C6.76258 6.4963 6.59907 6.42857 6.42857 6.42857C6.25808 6.42857 6.09456 6.4963 5.974 6.61686C5.85344 6.73742 5.78571 6.90093 5.78571 7.07143V13.5C5.78571 13.6705 5.85344 13.834 5.974 13.9546C6.09456 14.0751 6.25808 14.1429 6.42857 14.1429C6.59907 14.1429 6.76258 14.0751 6.88314 13.9546C7.0037 13.834 7.07143 13.6705 7.07143 13.5V7.07143ZM10.2857 6.42857C10.1152 6.42857 9.9517 6.4963 9.83115 6.61686C9.71059 6.73742 9.64286 6.90093 9.64286 7.07143V13.5C9.64286 13.6705 9.71059 13.834 9.83115 13.9546C9.9517 14.0751 10.1152 14.1429 10.2857 14.1429C10.4562 14.1429 10.6197 14.0751 10.7403 13.9546C10.8608 13.834 10.9286 13.6705 10.9286 13.5V7.07143C10.9286 6.90093 10.8608 6.73742 10.7403 6.61686C10.6197 6.4963 10.4562 6.42857 10.2857 6.42857Z" fill="white"/>
</svg>
