<svg width="19" height="19" viewBox="0 0 19 19" fill="none" xmlns="http://www.w3.org/2000/svg">
<path d="M9.00101 0.499759C8.29253 0.498704 7.60654 0.748421 7.06453 1.20468C6.52253 1.66094 6.15949 2.2943 6.03972 2.99258C5.91994 3.69086 6.05117 4.409 6.41014 5.0198C6.76911 5.63061 7.33267 6.09466 8.00101 6.32976V8.49976H5.00101C4.20536 8.49976 3.4423 8.81583 2.87969 9.37844C2.31708 9.94105 2.00101 10.7041 2.00101 11.4998V12.6698C1.33351 12.9057 0.770912 13.37 0.412646 13.9806C0.0543804 14.5912 -0.0764802 15.3088 0.043195 16.0065C0.16287 16.7043 0.525375 17.3373 1.06663 17.7936C1.60789 18.25 2.29305 18.5002 3.00101 18.5002C3.70896 18.5002 4.39412 18.25 4.93538 17.7936C5.47664 17.3373 5.83914 16.7043 5.95882 16.0065C6.07849 15.3088 5.94763 14.5912 5.58937 13.9806C5.2311 13.37 4.6685 12.9057 4.00101 12.6698V11.4998C4.00101 11.2345 4.10636 10.9802 4.2939 10.7927C4.48144 10.6051 4.73579 10.4998 5.00101 10.4998H13.001C13.2662 10.4998 13.5206 10.6051 13.7081 10.7927C13.8957 10.9802 14.001 11.2345 14.001 11.4998V12.6698C13.3335 12.9057 12.7709 13.37 12.4126 13.9806C12.0544 14.5912 11.9235 15.3088 12.0432 16.0065C12.1629 16.7043 12.5254 17.3373 13.0666 17.7936C13.6079 18.25 14.2931 18.5002 15.001 18.5002C15.709 18.5002 16.3941 18.25 16.9354 17.7936C17.4766 17.3373 17.8391 16.7043 17.9588 16.0065C18.0785 15.3088 17.9476 14.5912 17.5894 13.9806C17.2311 13.37 16.6685 12.9057 16.001 12.6698V11.4998C16.001 10.7041 15.6849 9.94105 15.1223 9.37844C14.5597 8.81583 13.7967 8.49976 13.001 8.49976H10.001V6.32976C10.6682 6.09361 11.2304 5.62928 11.5884 5.01879C11.9464 4.4083 12.0771 3.69094 11.9574 2.99342C11.8378 2.29589 11.4755 1.6631 10.9345 1.2068C10.3935 0.750511 9.70872 0.500084 9.00101 0.499759Z" fill="#AFB3BE"/>
</svg>
