<svg width="25" height="26" viewBox="0 0 25 26" fill="none" xmlns="http://www.w3.org/2000/svg">
<path d="M5.8195 6.26716C5.93823 6.26716 6.05209 6.22 6.13605 6.13605C6.22 6.05209 6.26716 5.93823 6.26716 5.8195L6.26716 1.3429C6.26716 0.986717 6.40865 0.645125 6.66051 0.393267C6.91237 0.141409 7.25396 -8.28211e-05 7.61014 -8.28523e-05C7.96632 -8.28834e-05 8.30792 0.141409 8.55977 0.393267C8.81163 0.645125 8.95312 0.986717 8.95312 1.3429L8.95312 5.8195C8.95312 7.54926 7.54926 8.95313 5.8195 8.95313L1.3429 8.95313C0.986717 8.95313 0.645125 8.81163 0.393267 8.55978C0.141409 8.30792 -8.30559e-05 7.96633 -8.30871e-05 7.61014C-8.31182e-05 7.25396 0.141409 6.91237 0.393266 6.66051C0.645124 6.40866 0.986717 6.26716 1.3429 6.26716L5.8195 6.26716Z" fill="#747DC4"/>
<path d="M6.26716 20.0867C6.26716 19.968 6.22 19.8542 6.13605 19.7702C6.05209 19.6863 5.93823 19.6391 5.8195 19.6391L1.3429 19.6391C0.986717 19.6391 0.645124 19.4976 0.393267 19.2457C0.141409 18.9939 -8.30439e-05 18.6523 -8.30284e-05 18.2961C-8.30128e-05 17.9399 0.141409 17.5983 0.393267 17.3465C0.645125 17.0946 0.986717 16.9531 1.3429 16.9531L5.8195 16.9531C7.54926 16.9531 8.95312 18.357 8.95312 20.0867L8.95312 24.5634C8.95312 24.9195 8.81163 25.2611 8.55977 25.513C8.30792 25.7648 7.96632 25.9063 7.61014 25.9063C7.25396 25.9063 6.91237 25.7648 6.66051 25.513C6.40865 25.2611 6.26716 24.9195 6.26716 24.5634L6.26716 20.0867Z" fill="#747DC4"/>
<path d="M18.686 5.8195C18.686 5.93823 18.7331 6.05209 18.8171 6.13605C18.901 6.22 19.0149 6.26716 19.1336 6.26716L23.6102 6.26716C23.9664 6.26716 24.308 6.40865 24.5599 6.66051C24.8117 6.91237 24.9532 7.25396 24.9532 7.61014C24.9532 7.96632 24.8117 8.30792 24.5599 8.55977C24.308 8.81163 23.9664 8.95313 23.6102 8.95313L19.1336 8.95313C17.4039 8.95313 16 7.54926 16 5.8195L16 1.3429C16 0.986717 16.1415 0.645125 16.3934 0.393267C16.6452 0.141409 16.9868 -8.29579e-05 17.343 -8.29537e-05C17.6992 -8.29494e-05 18.0408 0.141409 18.2926 0.393267C18.5445 0.645125 18.686 0.986717 18.686 1.3429L18.686 5.8195Z" fill="#747DC4"/>
<path d="M19.1336 19.686C19.0149 19.686 18.901 19.7331 18.8171 19.8171C18.7331 19.901 18.686 20.0149 18.686 20.1336V24.6102C18.686 24.9664 18.5445 25.308 18.2926 25.5599C18.0408 25.8117 17.6992 25.9532 17.343 25.9532C16.9868 25.9532 16.6452 25.8117 16.3934 25.5599C16.1415 25.308 16 24.9664 16 24.6102V20.1336C16 18.4039 17.4039 17 19.1336 17H23.6102C23.9664 17 24.308 17.1415 24.5599 17.3934C24.8117 17.6452 24.9532 17.9868 24.9532 18.343C24.9532 18.6992 24.8117 19.0408 24.5599 19.2926C24.308 19.5445 23.9664 19.686 23.6102 19.686H19.1336Z" fill="#747DC4"/>
</svg>
