<svg width="26" height="26" viewBox="0 0 26 26" fill="none" xmlns="http://www.w3.org/2000/svg">
<path d="M1.34298 16.1158C1.69916 16.1158 2.04075 16.2573 2.29261 16.5091C2.54447 16.761 2.68596 17.1026 2.68596 17.4588V21.9354C2.68596 22.1825 2.88651 22.383 3.13362 22.383H7.61023C7.96641 22.383 8.308 22.5245 8.55986 22.7764C8.81172 23.0282 8.95321 23.3698 8.95321 23.726C8.95321 24.0822 8.81172 24.4238 8.55986 24.6756C8.308 24.9275 7.96641 25.069 7.61023 25.069H3.13362C2.30253 25.069 1.50549 24.7388 0.917817 24.1512C0.330149 23.5635 0 22.7664 0 21.9354V17.4588C0 17.1026 0.141492 16.761 0.39335 16.5091C0.645208 16.2573 0.9868 16.1158 1.34298 16.1158ZM23.726 16.1158C24.0822 16.1158 24.4238 16.2573 24.6756 16.5091C24.9275 16.761 25.069 17.1026 25.069 17.4588V21.9354C25.069 22.7664 24.7388 23.5635 24.1512 24.1512C23.5635 24.7388 22.7664 25.069 21.9354 25.069H17.4588C17.1026 25.069 16.761 24.9275 16.5091 24.6756C16.2573 24.4238 16.1158 24.0822 16.1158 23.726C16.1158 23.3698 16.2573 23.0282 16.5091 22.7764C16.761 22.5245 17.1026 22.383 17.4588 22.383H21.9354C22.0541 22.383 22.168 22.3359 22.2519 22.2519C22.3359 22.168 22.383 22.0541 22.383 21.9354V17.4588C22.383 17.1026 22.5245 16.761 22.7764 16.5091C23.0282 16.2573 23.3698 16.1158 23.726 16.1158ZM3.13362 2.68596C3.0149 2.68596 2.90103 2.73313 2.81708 2.81708C2.73313 2.90103 2.68596 3.0149 2.68596 3.13362V7.61023C2.68596 7.96641 2.54447 8.308 2.29261 8.55986C2.04075 8.81172 1.69916 8.95321 1.34298 8.95321C0.9868 8.95321 0.645208 8.81172 0.39335 8.55986C0.141492 8.308 5.30751e-09 7.96641 0 7.61023V3.13362C0 1.40386 1.40386 0 3.13362 0H7.61023C7.96641 5.30751e-09 8.308 0.141492 8.55986 0.39335C8.81172 0.645208 8.95321 0.9868 8.95321 1.34298C8.95321 1.69916 8.81172 2.04075 8.55986 2.29261C8.308 2.54447 7.96641 2.68596 7.61023 2.68596H3.13362ZM16.1158 1.34298C16.1158 0.9868 16.2573 0.645208 16.5091 0.39335C16.761 0.141492 17.1026 0 17.4588 0H21.9354C23.6651 0 25.069 1.40386 25.069 3.13362V7.61023C25.069 7.96641 24.9275 8.308 24.6756 8.55986C24.4238 8.81172 24.0822 8.95321 23.726 8.95321C23.3698 8.95321 23.0282 8.81172 22.7764 8.55986C22.5245 8.308 22.383 7.96641 22.383 7.61023V3.13362C22.383 3.0149 22.3359 2.90103 22.2519 2.81708C22.168 2.73313 22.0541 2.68596 21.9354 2.68596H17.4588C17.1026 2.68596 16.761 2.54447 16.5091 2.29261C16.2573 2.04075 16.1158 1.69916 16.1158 1.34298Z" fill="#747DC4"/>
</svg>
