<svg width="28" height="28" viewBox="0 0 28 28" fill="none" xmlns="http://www.w3.org/2000/svg">
<mask id="mask0_1_3411" style="mask-type:luminance" maskUnits="userSpaceOnUse" x="0" y="0" width="28" height="28">
<path d="M14 25.962C20.6276 25.962 26 20.5896 26 13.962C26 7.33444 20.6276 1.96204 14 1.96204C7.3724 1.96204 2 7.33444 2 13.962C2 20.5896 7.3724 25.962 14 25.962Z" fill="white" stroke="white" stroke-width="2.4" stroke-linejoin="round"/>
<path fill-rule="evenodd" clip-rule="evenodd" d="M12.5 7.96204C12.5 8.35986 12.658 8.74139 12.9393 9.0227C13.2206 9.304 13.6022 9.46204 14 9.46204C14.3978 9.46204 14.7794 9.304 15.0607 9.0227C15.342 8.74139 15.5 8.35986 15.5 7.96204C15.5 7.56421 15.342 7.18268 15.0607 6.90138C14.7794 6.62007 14.3978 6.46204 14 6.46204C13.6022 6.46204 13.2206 6.62007 12.9393 6.90138C12.658 7.18268 12.5 7.56421 12.5 7.96204ZM12.5 13.962C12.5 14.3599 12.658 14.7414 12.9393 15.0227C13.2206 15.304 13.6022 15.462 14 15.462C14.3978 15.462 14.7794 15.304 15.0607 15.0227C15.342 14.7414 15.5 14.3599 15.5 13.962C15.5 13.5642 15.342 13.1827 15.0607 12.9014C14.7794 12.6201 14.3978 12.462 14 12.462C13.6022 12.462 13.2206 12.6201 12.9393 12.9014C12.658 13.1827 12.5 13.5642 12.5 13.962ZM14 21.462C13.6022 21.462 13.2206 21.304 12.9393 21.0227C12.658 20.7414 12.5 20.3599 12.5 19.962C12.5 19.5642 12.658 19.1827 12.9393 18.9014C13.2206 18.6201 13.6022 18.462 14 18.462C14.3978 18.462 14.7794 18.6201 15.0607 18.9014C15.342 19.1827 15.5 19.5642 15.5 19.962C15.5 20.3599 15.342 20.7414 15.0607 21.0227C14.7794 21.304 14.3978 21.462 14 21.462Z" fill="black"/>
</mask>
<g mask="url(#mask0_1_3411)">
<path d="M-0.400391 -0.437744H28.3996V28.3623H-0.400391V-0.437744Z" fill="black"/>
</g>
</svg>
