<svg width="14" height="19" viewBox="0 0 14 19" fill="none" xmlns="http://www.w3.org/2000/svg">
<path d="M7 0.795776C3.6875 0.795776 1 3.35369 1 6.50411C1 10.1291 5 15.8737 6.46875 17.8579C6.52972 17.9416 6.60962 18.0098 6.70195 18.0568C6.79428 18.1038 6.8964 18.1282 7 18.1282C7.1036 18.1282 7.20573 18.1038 7.29805 18.0568C7.39038 18.0098 7.47028 17.9416 7.53125 17.8579C9 15.8745 13 10.132 13 6.50411C13 3.35369 10.3125 0.795776 7 0.795776Z" stroke="#101010" stroke-width="1.33333" stroke-linecap="round" stroke-linejoin="round"/>
<path d="M7 8.79623C8.10457 8.79623 9 7.9008 9 6.79623C9 5.69166 8.10457 4.79623 7 4.79623C5.89543 4.79623 5 5.69166 5 6.79623C5 7.9008 5.89543 8.79623 7 8.79623Z" stroke="#101010" stroke-width="1.33333" stroke-linecap="round" stroke-linejoin="round"/>
</svg>
