<svg width="27" height="29" viewBox="0 0 27 29" fill="none" xmlns="http://www.w3.org/2000/svg">
<path d="M13.2729 28.5455C15.1041 28.5455 16.5895 27.06 16.5895 25.2273H9.95623C9.95623 27.06 11.4416 28.5455 13.2729 28.5455ZM24.4401 20.7835C23.4384 19.7072 21.5642 18.088 21.5642 12.7841C21.5642 8.75561 18.7396 5.53075 14.9309 4.73957V3.65909C14.9309 2.74296 14.1885 2 13.2729 2C12.3572 2 11.6148 2.74296 11.6148 3.65909V4.73957C7.80615 5.53075 4.98155 8.75561 4.98155 12.7841C4.98155 18.088 3.10729 19.7072 2.10561 20.7835C1.79454 21.1179 1.65662 21.5176 1.65922 21.9091C1.66492 22.7594 2.33218 23.5682 3.32349 23.5682H23.2222C24.2135 23.5682 24.8813 22.7594 24.8865 21.9091C24.8891 21.5176 24.7512 21.1174 24.4401 20.7835Z" fill="#747DC4"/>
<circle cx="21.5681" cy="5.31907" r="4.97727" fill="#FD482F"/>
</svg>
