<svg width="25" height="24" viewBox="0 0 25 24" fill="none" xmlns="http://www.w3.org/2000/svg">
<circle cx="12.2266" cy="12" r="12" fill="#FDE8D5"/>
<path d="M13.4579 5.31445L13.2323 14.9677H11.296L11.061 5.31445H13.4579ZM10.9952 17.9285C10.9952 17.5838 11.108 17.2956 11.3336 17.0637C11.5655 16.8256 11.8851 16.7065 12.2924 16.7065C12.6934 16.7065 13.0098 16.8256 13.2417 17.0637C13.4736 17.2956 13.5895 17.5838 13.5895 17.9285C13.5895 18.2606 13.4736 18.5457 13.2417 18.7838C13.0098 19.0157 12.6934 19.1316 12.2924 19.1316C11.8851 19.1316 11.5655 19.0157 11.3336 18.7838C11.108 18.5457 10.9952 18.2606 10.9952 17.9285Z" fill="#EF832C"/>
</svg>
