<svg width="18" height="18" viewBox="0 0 18 18" fill="none" xmlns="http://www.w3.org/2000/svg">
<path d="M8.57688 6.43308C9.14555 6.43308 9.69093 6.65899 10.093 7.0611C10.4952 7.46322 10.7211 8.0086 10.7211 8.57727C10.7211 9.14595 10.4952 9.69133 10.093 10.0934C9.69093 10.4956 9.14555 10.7215 8.57688 10.7215C8.0082 10.7215 7.46282 10.4956 7.0607 10.0934C6.65859 9.69133 6.43269 9.14595 6.43269 8.57727C6.43269 8.0086 6.65859 7.46322 7.0607 7.0611C7.46282 6.65899 8.0082 6.43308 8.57688 6.43308ZM8.57688 3.2168C12.1505 3.2168 15.2024 5.43961 16.4389 8.57727C15.2024 11.7149 12.1505 13.9378 8.57688 13.9378C5.00323 13.9378 1.95133 11.7149 0.714844 8.57727C1.95133 5.43961 5.00323 3.2168 8.57688 3.2168ZM2.27296 8.57727C2.85064 9.7568 3.74766 10.7506 4.86205 11.4457C5.97644 12.1407 7.26349 12.5092 8.57688 12.5092C9.89027 12.5092 11.1773 12.1407 12.2917 11.4457C13.4061 10.7506 14.3031 9.7568 14.8808 8.57727C14.3031 7.39775 13.4061 6.40396 12.2917 5.70888C11.1773 5.0138 9.89027 4.64531 8.57688 4.64531C7.26349 4.64531 5.97644 5.0138 4.86205 5.70888C3.74766 6.40396 2.85064 7.39775 2.27296 8.57727Z" fill="#757EC5"/>
</svg>
