<svg width="20" height="20" viewBox="0 0 20 20" fill="none" xmlns="http://www.w3.org/2000/svg">
<path fill-rule="evenodd" clip-rule="evenodd" d="M9.91862 1.93561C9.78104 1.3386 9.42871 0.813045 8.92872 0.459003C8.42872 0.104961 7.81599 -0.0528372 7.20718 0.0156531C6.59837 0.0841434 6.036 0.374139 5.62717 0.830423C5.21833 1.28671 4.99158 1.87741 4.99008 2.49006C4.98977 3.1037 5.21561 3.69593 5.62443 4.15356C6.03325 4.61119 6.59637 4.90211 7.20617 4.97072C7.81596 5.03933 8.42965 4.88081 8.92994 4.52547C9.43022 4.17013 9.78202 3.64288 9.91807 3.04451H9.98017C10.003 3.04444 10.0257 3.04296 10.0484 3.04008C10.1759 3.53188 10.4698 3.87619 10.8119 3.87619C11.2709 3.87619 11.6435 3.25521 11.6435 2.49006C11.6435 1.72491 11.2709 1.10392 10.8119 1.10392C10.4698 1.10392 10.1759 1.44769 10.0484 1.93949C10.0257 1.93681 10.003 1.93551 9.98017 1.93561H9.91862ZM8.74152 3.07723C8.61624 3.34574 8.40821 3.56705 8.14794 3.70868C7.88768 3.85031 7.58888 3.90481 7.29537 3.8642C7.00186 3.82358 6.72909 3.68997 6.51707 3.48298C6.30505 3.27599 6.16494 3.00651 6.11729 2.71406C7.01994 3.11327 7.79673 3.11105 8.74096 3.07723H8.74152ZM6.40228 1.62456C6.55278 1.43614 6.74984 1.29025 6.97398 1.2013C7.19812 1.11234 7.44159 1.0834 7.68034 1.11733C7.91908 1.15126 8.14485 1.24689 8.33533 1.39477C8.52581 1.54265 8.67442 1.73767 8.76647 1.96056L8.75205 1.96111C7.73075 1.99604 7.17075 2.01489 6.40228 1.62456ZM1.45655 7.47959C2.37306 6.38122 3.74811 5.53956 5.41147 5.53956C5.76612 5.53956 6.11149 5.65291 6.39716 5.86308C6.68284 6.07324 6.89386 6.36921 6.99943 6.70779L7.70635 8.97551H8.31681C8.75796 8.97551 9.18104 9.15075 9.49298 9.46269C9.80492 9.77463 9.98017 10.1977 9.98017 10.6389C9.98017 11.08 9.80492 11.5031 9.49298 11.815C9.18104 12.127 8.75796 12.3022 8.31681 12.3022H6.48212C6.13193 12.3021 5.79071 12.1915 5.50707 11.9861C5.22344 11.7807 5.01186 11.4911 4.90248 11.1584C4.66772 11.7806 4.51091 12.4294 4.43563 13.0901V18.292C4.43563 18.5104 4.39261 18.7267 4.30902 18.9285C4.22542 19.1303 4.1029 19.3137 3.94844 19.4682C3.79399 19.6226 3.61062 19.7451 3.40881 19.8287C3.207 19.9123 2.99071 19.9554 2.77227 19.9554C2.55383 19.9554 2.33754 19.9123 2.13573 19.8287C1.93392 19.7451 1.75055 19.6226 1.59609 19.4682C1.44164 19.3137 1.31912 19.1303 1.23552 18.9285C1.15193 18.7267 1.10891 18.5104 1.10891 18.292V14.4175C1.0019 14.2478 0.870493 14.0288 0.736315 13.7837C0.55991 13.4647 0.405415 13.134 0.2739 12.794C0.147485 12.4591 0 11.9801 0 11.4667C0 10.0096 0.5478 8.56965 1.45655 7.47959ZM5.41147 6.64846C4.14399 6.64846 3.06059 7.28775 2.30819 8.18985C1.55912 9.08806 1.10891 10.279 1.10891 11.4667C1.10891 11.7827 1.20261 12.1148 1.31128 12.4026C1.42328 12.6998 1.56966 12.9959 1.70994 13.2531C1.84071 13.492 1.98034 13.726 2.12855 13.9545C2.1868 14.0443 2.2178 14.1491 2.21782 14.2561V18.292C2.21782 18.439 2.27623 18.5801 2.38021 18.6841C2.48419 18.788 2.62522 18.8464 2.77227 18.8464C2.91932 18.8464 3.06035 18.788 3.16433 18.6841C3.26831 18.5801 3.32672 18.439 3.32672 18.292V13.0607C3.32672 13.0408 3.32783 13.0219 3.3295 13.0025C3.47809 11.5997 3.96878 10.3389 4.52102 9.35309C4.57403 9.25858 4.65357 9.18167 4.74981 9.13187C4.84605 9.08208 4.95478 9.06158 5.06255 9.0729C5.17032 9.08423 5.27241 9.12688 5.35619 9.1956C5.43998 9.26432 5.5018 9.35608 5.534 9.45954L5.95317 10.8035C5.98837 10.9163 6.05867 11.0149 6.15382 11.0849C6.24897 11.1549 6.36399 11.1927 6.48212 11.1928H8.31681C8.46386 11.1928 8.60489 11.1344 8.70887 11.0304C8.81285 10.9264 8.87126 10.7854 8.87126 10.6383C8.87126 10.4913 8.81285 10.3502 8.70887 10.2463C8.60489 10.1423 8.46386 10.0839 8.31681 10.0839H7.29828C7.18005 10.0839 7.0649 10.0462 6.96964 9.97615C6.87439 9.90612 6.804 9.80749 6.76877 9.69463L5.94097 7.03769C5.90574 6.92484 5.83536 6.8262 5.7401 6.75617C5.64484 6.68615 5.5297 6.64841 5.41147 6.64846ZM17.4653 6.64846C18.127 6.64846 18.7616 6.38559 19.2296 5.91768C19.6975 5.44977 19.9603 4.81515 19.9603 4.15342C19.9603 3.49169 19.6975 2.85707 19.2296 2.38916C18.7616 1.92125 18.127 1.65838 17.4653 1.65838C16.8036 1.65838 16.1689 1.92125 15.701 2.38916C15.2331 2.85707 14.9703 3.49169 14.9703 4.15342C14.9703 4.81515 15.2331 5.44977 15.701 5.91768C16.1689 6.38559 16.8036 6.64846 17.4653 6.64846ZM17.4653 5.53956C17.8329 5.53956 18.1855 5.39352 18.4454 5.13357C18.7054 4.87362 18.8514 4.52105 18.8514 4.15342C18.8514 3.78579 18.7054 3.43323 18.4454 3.17328C18.1855 2.91332 17.8329 2.76729 17.4653 2.76729C17.0977 2.76729 16.7451 2.91332 16.4852 3.17328C16.2252 3.43323 16.0792 3.78579 16.0792 4.15342C16.0792 4.52105 16.2252 4.87362 16.4852 5.13357C16.7451 5.39352 17.0977 5.53956 17.4653 5.53956Z" fill="#AFB3BE"/>
<path fill-rule="evenodd" clip-rule="evenodd" d="M15.7352 6.52063C15.5804 6.17615 15.313 5.8946 14.9769 5.72229C14.6409 5.54998 14.2562 5.49716 13.8861 5.57251L13.8667 5.57695H13.8651L13.8567 5.57917L13.8451 5.58194H13.8434C13.7474 5.60376 13.6527 5.63154 13.5601 5.66511C13.3817 5.72793 13.2083 5.80392 13.0411 5.89243C12.6381 6.10479 12.1479 6.44689 11.6766 6.98859C10.7124 8.09472 9.98055 9.8529 9.98055 12.5625C9.98055 12.8453 10.0354 13.8228 11.0085 14.3018C11.1028 14.3484 11.1943 14.3839 11.2813 14.4105H5.54492V19.955H6.65383V16.0739H12.7528V19.955H13.8617V15.2644C14.3481 15.603 14.8192 15.9632 15.2734 16.3439C15.3166 16.4126 15.3732 16.5047 15.4403 16.6178C15.5933 16.8739 15.784 17.2033 15.982 17.5459L16.262 18.0339L16.2636 18.0366L16.2786 18.0621V18.0632C16.5558 18.5462 16.8247 19.0141 16.9345 19.186C17.1717 19.558 17.5469 19.8205 17.9777 19.9158C18.4084 20.0111 18.8594 19.9314 19.2313 19.6942C19.6033 19.457 19.8658 19.0817 19.9611 18.651C20.0564 18.2203 19.9767 17.7693 19.7395 17.3974C19.5536 17.0859 19.3713 16.7722 19.1928 16.4564L19.1917 16.4548L18.8646 15.8854C18.6661 15.5416 18.4637 15.1923 18.2968 14.9128C18.2212 14.7856 18.1439 14.6594 18.065 14.5342L18.0623 14.5292C18.0157 14.456 17.9104 14.2896 17.7934 14.1549C17.7084 14.0602 17.6173 13.9713 17.5206 13.8888L17.5106 13.8799C17.4138 13.7961 17.3159 13.7136 17.2167 13.6326C16.8586 13.3389 16.4918 13.056 16.1167 12.7843H18.2974C18.7385 12.7843 19.1616 12.609 19.4735 12.2971C19.7855 11.9852 19.9607 11.5621 19.9607 11.1209C19.9607 10.6798 19.7855 10.2567 19.4735 9.94476C19.1616 9.63282 18.7385 9.45757 18.2974 9.45757H17.0559L15.7352 6.52063ZM14.155 14.1255C14.1336 14.1116 14.1112 14.0992 14.0879 14.0884C14.0685 14.072 14.0479 14.057 14.0264 14.0435C13.7032 13.8389 13.3788 13.6553 13.0927 13.5356C12.6486 13.3493 12.3398 13.3676 12.0914 13.382L12.0692 13.3837C11.9959 13.3889 11.9225 13.3908 11.8491 13.3892C11.7276 13.387 11.6079 13.359 11.4981 13.3071C11.1366 13.1297 11.0895 12.7671 11.0895 12.5625C11.0895 10.0569 11.7631 8.57821 12.5127 7.71659C12.8059 7.37351 13.16 7.08775 13.5573 6.87382C13.6981 6.79925 13.8453 6.73727 13.997 6.68863C14.0645 6.68748 14.1312 6.67395 14.1938 6.64871C14.3047 6.64383 14.4145 6.67235 14.509 6.73057C14.6035 6.7888 14.6784 6.87404 14.7239 6.97528L16.1921 10.2394C16.2359 10.3368 16.3069 10.4195 16.3966 10.4776C16.4864 10.5356 16.5909 10.5665 16.6978 10.5665H18.2974C18.4444 10.5665 18.5854 10.6249 18.6894 10.7289C18.7934 10.8329 18.8518 10.9739 18.8518 11.1209C18.8518 11.268 18.7934 11.409 18.6894 11.513C18.5854 11.617 18.4444 11.6754 18.2974 11.6754H15.9803C15.8735 11.6754 15.7689 11.6445 15.6792 11.5865C15.5895 11.5284 15.5184 11.4457 15.4746 11.3483L14.9074 10.0869C14.8629 9.98805 14.7904 9.90443 14.6989 9.84635C14.6074 9.78828 14.5009 9.75831 14.3925 9.76014C14.2841 9.76197 14.1787 9.79552 14.0892 9.85664C13.9997 9.91777 13.93 10.0038 13.8889 10.1041C13.64 10.7103 13.4627 11.3435 13.3605 11.9909C13.3415 12.1102 13.362 12.2324 13.4188 12.339C13.4757 12.4456 13.5658 12.5307 13.6754 12.5814C14.3341 12.8858 15.0876 13.3997 15.6787 13.8383C16.0058 14.0812 16.2963 14.3113 16.5131 14.4892C16.6212 14.578 16.7127 14.6556 16.7815 14.7155L16.787 14.7204C16.8098 14.7404 16.8408 14.7676 16.8741 14.7981C16.9085 14.8308 16.9367 14.8591 16.9545 14.8796C16.98 14.909 17.0105 14.9505 17.0437 14.9982C17.0765 15.0454 17.1047 15.0908 17.1291 15.128C17.1901 15.2244 17.2639 15.3453 17.3448 15.4812C17.5073 15.7528 17.7052 16.0955 17.9037 16.4387L18.2308 17.0087L18.2319 17.0103L18.2508 17.0436C18.5075 17.4899 18.7248 17.8686 18.8047 17.9939C18.8438 18.0554 18.8705 18.1239 18.8831 18.1956C18.8958 18.2673 18.8942 18.3408 18.8784 18.4119C18.8627 18.483 18.8331 18.5503 18.7913 18.61C18.7495 18.6697 18.6964 18.7205 18.635 18.7596C18.5736 18.7988 18.5051 18.8254 18.4334 18.8381C18.3616 18.8507 18.2881 18.8491 18.217 18.8334C18.1459 18.8176 18.0786 18.788 18.019 18.7463C17.9593 18.7045 17.9085 18.6514 17.8693 18.59C17.6494 18.2238 17.4345 17.8547 17.2245 17.4827C17.1308 17.3203 17.036 17.1534 16.9428 16.9926C16.7449 16.6494 16.5503 16.3134 16.3928 16.05C16.3176 15.9236 16.2406 15.7982 16.1616 15.6741C16.1337 15.6316 16.1001 15.5932 16.0618 15.5599L16.0529 15.5516C15.9726 15.482 15.8913 15.4137 15.809 15.3464C15.55 15.1342 15.286 14.9283 15.0172 14.7288C14.7359 14.5189 14.4487 14.3177 14.155 14.1255Z" fill="#AFB3BE"/>
</svg>
