<svg width="32" height="32" viewBox="0 0 32 32" fill="none" xmlns="http://www.w3.org/2000/svg">
<path d="M24.0999 2.07202L29.6639 7.87202V29.928H8.87891V30H29.7349V7.94502L24.0999 2.07202Z" fill="#909090"/>
<path d="M24.0306 2H8.80762V29.928H29.6636V7.873L24.0306 2Z" fill="#F4F4F4"/>
<path d="M8.65465 3.5H2.26465V10.327H22.3646V3.5H8.65465Z" fill="#7A7B7C"/>
<path d="M22.4715 10.2109H2.39453V3.37891H22.4715V10.2109Z" fill="#DD2025"/>
<path d="M9.05212 4.53394H7.74512V9.33394H8.77312V7.71494L9.00012 7.72794C9.22069 7.72415 9.43919 7.68463 9.64712 7.61094C9.82942 7.54824 9.99713 7.44925 10.1401 7.31994C10.2856 7.19676 10.4003 7.0413 10.4751 6.86594C10.5754 6.57444 10.6112 6.26464 10.5801 5.95794C10.5739 5.73885 10.5355 5.52186 10.4661 5.31394C10.403 5.16385 10.3093 5.02854 10.191 4.91663C10.0728 4.80473 9.93247 4.71867 9.77912 4.66394C9.64653 4.61594 9.50953 4.5811 9.37012 4.55994C9.26454 4.54365 9.15794 4.53496 9.05112 4.53394M8.86212 6.82794H8.77312V5.34794H8.96612C9.0513 5.3418 9.13677 5.35487 9.21622 5.3862C9.29566 5.41753 9.36706 5.46631 9.42512 5.52894C9.54544 5.68995 9.60971 5.88594 9.60812 6.08694C9.60812 6.33294 9.60812 6.55594 9.38612 6.71294C9.22618 6.8009 9.04414 6.84151 8.86212 6.82794ZM12.5331 4.52094C12.4221 4.52094 12.3141 4.52894 12.2381 4.53194L12.0001 4.53794H11.2201V9.33794H12.1381C12.4889 9.34756 12.8382 9.2881 13.1661 9.16294C13.43 9.05826 13.6637 8.88952 13.8461 8.67194C14.0235 8.4524 14.1508 8.19678 14.2191 7.92294C14.2977 7.61281 14.336 7.29385 14.3331 6.97394C14.3525 6.5961 14.3233 6.21733 14.2461 5.84694C14.1729 5.5743 14.0358 5.32303 13.8461 5.11394C13.6973 4.9451 13.5152 4.80891 13.3111 4.71394C13.1359 4.63286 12.9516 4.5731 12.7621 4.53594C12.6868 4.52349 12.6105 4.51781 12.5341 4.51894M12.3521 8.45594H12.2521V5.39194H12.2651C12.4713 5.36822 12.6799 5.40542 12.8651 5.49894C13.0008 5.60727 13.1113 5.74374 13.1891 5.89894C13.2731 6.06228 13.3215 6.24155 13.3311 6.42494C13.3401 6.64494 13.3311 6.82494 13.3311 6.97394C13.3352 7.14558 13.3241 7.31724 13.2981 7.48694C13.2673 7.66117 13.2103 7.82974 13.1291 7.98694C13.0372 8.1331 12.913 8.25625 12.7661 8.34694C12.6427 8.42674 12.4966 8.46397 12.3501 8.45294M17.4301 4.53794H15.0001V9.33794H16.0281V7.43394H17.3281V6.54194H16.0281V5.42994H17.4281V4.53794" fill="#464648"/>
<path d="M21.7807 20.255C21.7807 20.255 24.9687 19.677 24.9687 20.766C24.9687 21.855 22.9937 21.412 21.7807 20.255ZM19.4237 20.338C18.9172 20.4499 18.4236 20.6138 17.9507 20.827L18.3507 19.927C18.7507 19.027 19.1657 17.8 19.1657 17.8C19.643 18.6033 20.1984 19.3577 20.8237 20.052C20.3521 20.1223 19.8847 20.2185 19.4237 20.34V20.338ZM18.1617 13.838C18.1617 12.889 18.4687 12.63 18.7077 12.63C18.9467 12.63 19.2157 12.745 19.2247 13.569C19.1468 14.3976 18.9733 15.2143 18.7077 16.003C18.3438 15.3408 18.1555 14.5966 18.1607 13.841L18.1617 13.838ZM13.5127 24.354C12.5347 23.769 15.5637 21.968 16.1127 21.91C16.1097 21.911 14.5367 24.966 13.5127 24.354ZM25.8997 20.895C25.8897 20.795 25.7997 19.688 23.8297 19.735C23.0086 19.7218 22.1878 19.7797 21.3767 19.908C20.591 19.1164 19.9143 18.2235 19.3647 17.253C19.711 16.2524 19.9205 15.2097 19.9877 14.153C19.9587 12.953 19.6717 12.265 18.7517 12.275C17.8317 12.285 17.6977 13.09 17.8187 14.288C17.9372 15.0931 18.1608 15.8791 18.4837 16.626C18.4837 16.626 18.0587 17.949 17.4967 19.265C16.9347 20.581 16.5507 21.271 16.5507 21.271C15.5734 21.5891 14.6534 22.0618 13.8257 22.671C13.0017 23.438 12.6667 24.027 13.1007 24.616C13.4747 25.124 14.7837 25.239 15.9537 23.706C16.5753 22.9142 17.1433 22.0817 17.6537 21.214C17.6537 21.214 19.4377 20.725 19.9927 20.591C20.5477 20.457 21.2187 20.351 21.2187 20.351C21.2187 20.351 22.8477 21.99 24.4187 21.932C25.9897 21.874 25.9137 20.993 25.9037 20.897" fill="#DD2025"/>
<path d="M23.9541 2.0769V7.9499H29.5871L23.9541 2.0769Z" fill="#909090"/>
<path d="M24.0312 2V7.873H29.6642L24.0312 2Z" fill="#F4F4F4"/>
<path d="M8.97497 4.45704H7.66797V9.25704H8.69997V7.63904L8.92797 7.65204C9.14854 7.64824 9.36704 7.60873 9.57497 7.53504C9.75726 7.47231 9.92496 7.37332 10.068 7.24404C10.2124 7.12053 10.326 6.96509 10.4 6.79004C10.5003 6.49853 10.5361 6.18874 10.505 5.88204C10.4987 5.66294 10.4603 5.44596 10.391 5.23804C10.3278 5.08794 10.2342 4.95264 10.1159 4.84073C9.9976 4.72882 9.85732 4.64276 9.70397 4.58804C9.57077 4.53957 9.4331 4.5044 9.29297 4.48304C9.18739 4.46675 9.08079 4.45806 8.97397 4.45704M8.78497 6.75104H8.69597V5.27104H8.88997C8.97515 5.26489 9.06062 5.27797 9.14007 5.3093C9.21952 5.34063 9.29091 5.38941 9.34897 5.45204C9.46929 5.61305 9.53356 5.80904 9.53197 6.01004C9.53197 6.25604 9.53197 6.47904 9.30997 6.63604C9.15004 6.724 8.96799 6.76361 8.78597 6.75004M12.456 4.44404C12.345 4.44404 12.237 4.45204 12.161 4.45504L11.926 4.46104H11.146V9.26104H12.064C12.4148 9.27065 12.7641 9.21119 13.092 9.08604C13.3559 8.98136 13.5896 8.81262 13.772 8.59504C13.9493 8.37549 14.0766 8.11987 14.145 7.84604C14.2235 7.53591 14.2618 7.21695 14.259 6.89704C14.2784 6.51919 14.2491 6.14042 14.172 5.77004C14.0988 5.4974 13.9616 5.24613 13.772 5.03704C13.6232 4.8682 13.441 4.73201 13.237 4.63704C13.0617 4.55595 12.8774 4.49619 12.688 4.45904C12.6126 4.44659 12.5363 4.4409 12.46 4.44204M12.278 8.37904H12.178V5.31504H12.191C12.3971 5.29132 12.6057 5.32851 12.791 5.42204C12.9266 5.53036 13.0372 5.66684 13.115 5.82204C13.1989 5.98537 13.2473 6.16464 13.257 6.34804C13.266 6.56804 13.257 6.74804 13.257 6.89704C13.261 7.06867 13.25 7.24034 13.224 7.41004C13.1931 7.58427 13.1362 7.75284 13.055 7.91004C12.9631 8.05619 12.8389 8.17934 12.692 8.27004C12.5686 8.34983 12.4225 8.38706 12.276 8.37604M17.353 4.46104H14.923V9.26104H15.951V7.35704H17.251V6.46504H15.951V5.35304H17.351V4.46104" fill="white"/>
</svg>
