<svg width="18" height="19" viewBox="0 0 18 19" fill="none" xmlns="http://www.w3.org/2000/svg">
<path d="M16.23 13.222L13.69 12.932C13.3914 12.897 13.0886 12.93 12.8046 13.0288C12.5206 13.1275 12.2626 13.2893 12.05 13.502L10.21 15.342C7.37123 13.8983 5.06382 11.5909 3.62004 8.75205L5.47004 6.90205C5.90004 6.47205 6.11004 5.87205 6.04004 5.26205L5.75004 2.74205C5.69335 2.25422 5.45923 1.80428 5.09228 1.47789C4.72532 1.15151 4.25115 0.971464 3.76004 0.972047H2.03004C0.900041 0.972047 -0.0399593 1.91205 0.0300407 3.04205C0.560041 11.582 7.39004 18.402 15.92 18.932C17.05 19.002 17.99 18.062 17.99 16.932V15.202C18 14.192 17.24 13.342 16.23 13.222Z" fill="black"/>
</svg>
