<svg width="38" height="40" viewBox="0 0 38 40" fill="none" xmlns="http://www.w3.org/2000/svg">
<path fill-rule="evenodd" clip-rule="evenodd" d="M4.41632 14.7906C4.41674 12.5301 4.94265 10.3006 5.95251 8.27826C6.96237 6.25589 8.42854 4.49596 10.2353 3.13744C12.042 1.77891 14.1398 0.858987 16.363 0.450293C18.5862 0.0415996 20.8741 0.155329 23.0458 0.782501C25.2175 1.40967 27.2138 2.53312 28.8768 4.06413C30.5399 5.59514 31.8243 7.4918 32.6286 9.60436C33.4329 11.7169 33.7351 13.9875 33.5114 16.2369C33.2876 18.4863 32.544 20.6529 31.3392 22.5656L37.0205 32.4052C37.1703 32.6653 37.2421 32.963 37.2271 33.2628C37.2122 33.5626 37.1113 33.8517 36.9363 34.0957C36.7614 34.3396 36.5199 34.528 36.2408 34.6383C35.9616 34.7486 35.6566 34.7761 35.3622 34.7177L29.9122 33.6343L28.1247 38.8968C28.0282 39.1814 27.8518 39.4321 27.6165 39.6189C27.3812 39.8058 27.097 39.9208 26.798 39.9503C26.499 39.9798 26.1979 39.9224 25.9306 39.7851C25.6634 39.6477 25.4414 39.4363 25.2913 39.176L19.6247 29.3614C19.2082 29.379 18.7911 29.379 18.3747 29.3614L12.708 39.176C12.5582 39.4364 12.3366 39.648 12.0696 39.7857C11.8026 39.9233 11.5016 39.9811 11.2027 39.9521C10.9037 39.923 10.6194 39.8085 10.3839 39.6221C10.1484 39.4356 9.97156 39.1853 9.87465 38.901L8.0809 33.651L2.63507 34.7197C2.34081 34.7777 2.03609 34.7498 1.75727 34.6393C1.47846 34.5288 1.23734 34.3404 1.06271 34.0965C0.888077 33.8527 0.787307 33.5638 0.772431 33.2642C0.757556 32.9647 0.829204 32.6672 0.97882 32.4072L6.66007 22.5677C5.18983 20.2405 4.41165 17.5432 4.41632 14.7906ZM8.76215 25.176C10.5197 26.9117 12.6898 28.172 15.0684 28.8385L11.7205 34.6364L10.5955 31.3468C10.4731 30.9895 10.2255 30.6886 9.89843 30.4998C9.57134 30.311 9.18693 30.247 8.81632 30.3197L5.4059 30.9906L8.76007 25.1781L8.76215 25.176ZM22.9309 28.8385L26.2747 34.6281L27.3934 31.3343C27.515 30.9754 27.763 30.6729 28.0911 30.4832C28.4191 30.2935 28.805 30.2295 29.1767 30.3031L32.5892 30.9822L29.2372 25.176C27.4795 26.9116 25.3095 28.1719 22.9309 28.8385ZM18.9997 8.01974C17.2039 8.01974 15.4817 8.73309 14.212 10.0029C12.9422 11.2726 12.2288 12.9948 12.2288 14.7906C12.2288 16.5863 12.9422 18.3085 14.212 19.5783C15.4817 20.8481 17.2039 21.5614 18.9997 21.5614C20.7954 21.5614 22.5176 20.8481 23.7874 19.5783C25.0571 18.3085 25.7705 16.5863 25.7705 14.7906C25.7705 12.9948 25.0571 11.2726 23.7874 10.0029C22.5176 8.73309 20.7954 8.01974 18.9997 8.01974Z" fill="black"/>
</svg>
