<svg width="20" height="16" viewBox="0 0 20 16" fill="none" xmlns="http://www.w3.org/2000/svg">
<path d="M3 6.85714C4.10312 6.85714 5 5.83214 5 4.57143C5 3.31071 4.10312 2.28571 3 2.28571C1.89688 2.28571 1 3.31071 1 4.57143C1 5.83214 1.89688 6.85714 3 6.85714ZM17 6.85714C18.1031 6.85714 19 5.83214 19 4.57143C19 3.31071 18.1031 2.28571 17 2.28571C15.8969 2.28571 15 3.31071 15 4.57143C15 5.83214 15.8969 6.85714 17 6.85714ZM18 8H16C15.45 8 14.9531 8.25357 14.5906 8.66429C15.85 9.45357 16.7438 10.8786 16.9375 12.5714H19C19.5531 12.5714 20 12.0607 20 11.4286V10.2857C20 9.025 19.1031 8 18 8ZM10 8C11.9344 8 13.5 6.21071 13.5 4C13.5 1.78929 11.9344 0 10 0C8.06562 0 6.5 1.78929 6.5 4C6.5 6.21071 8.06562 8 10 8ZM12.4 9.14286H12.1406C11.4906 9.5 10.7688 9.71429 10 9.71429C9.23125 9.71429 8.5125 9.5 7.85938 9.14286H7.6C5.6125 9.14286 4 10.9857 4 13.2571V14.2857C4 15.2321 4.67188 16 5.5 16H14.5C15.3281 16 16 15.2321 16 14.2857V13.2571C16 10.9857 14.3875 9.14286 12.4 9.14286ZM5.40938 8.66429C5.04688 8.25357 4.55 8 4 8H2C0.896875 8 0 9.025 0 10.2857V11.4286C0 12.0607 0.446875 12.5714 1 12.5714H3.05938C3.25625 10.8786 4.15 9.45357 5.40938 8.66429Z" fill="#AFB3BE"/>
</svg>
