<svg width="22" height="17" viewBox="0 0 22 17" fill="none" xmlns="http://www.w3.org/2000/svg">
<path d="M21.9563 7.81755C21.0938 5.58643 19.5964 3.65696 17.6492 2.26759C15.702 0.878232 13.3904 0.0898894 11 0C8.60964 0.0898894 6.29802 0.878232 4.35083 2.26759C2.40363 3.65696 0.906232 5.58643 0.0436893 7.81755C-0.0145631 7.97868 -0.0145631 8.15511 0.0436893 8.31624C0.906232 10.5474 2.40363 12.4768 4.35083 13.8662C6.29802 15.2556 8.60964 16.0439 11 16.1338C13.3904 16.0439 15.702 15.2556 17.6492 13.8662C19.5964 12.4768 21.0938 10.5474 21.9563 8.31624C22.0146 8.15511 22.0146 7.97868 21.9563 7.81755ZM11 12.8337C10.0572 12.8337 9.1356 12.5541 8.35171 12.0303C7.56781 11.5066 6.95684 10.7621 6.59605 9.89107C6.23526 9.02005 6.14086 8.06161 6.32479 7.13694C6.50872 6.21227 6.96271 5.36291 7.62936 4.69626C8.29601 4.02961 9.14537 3.57561 10.07 3.39169C10.9947 3.20776 11.9532 3.30216 12.8242 3.66295C13.6952 4.02373 14.4397 4.63471 14.9635 5.4186C15.4872 6.2025 15.7668 7.12411 15.7668 8.0669C15.7649 9.33053 15.262 10.5419 14.3685 11.4354C13.475 12.3289 12.2636 12.8318 11 12.8337Z" fill="white"/>
</svg>
