<svg width="24" height="22" viewBox="0 0 24 22" fill="none" xmlns="http://www.w3.org/2000/svg">
<path d="M3.33789 15.962C4.21541 17.4828 5.478 18.7455 6.99859 19.6233C8.51919 20.501 10.2441 20.9627 11.9999 20.962C13.7556 20.9627 15.4806 20.501 17.0012 19.6233C18.5218 18.7455 19.7844 17.4828 20.6619 15.962M3.33789 5.96204C4.21541 4.44132 5.478 3.17855 6.99859 2.30081C8.51919 1.42307 10.2441 0.961325 11.9999 0.962037C13.7556 0.961325 15.4806 1.42307 17.0012 2.30081C18.5218 3.17855 19.7844 4.44132 20.6619 5.96204" stroke="black" stroke-width="1.5" stroke-linecap="round" stroke-linejoin="round"/>
<path d="M13 20.9121C13 20.9121 14.408 19.0591 15.295 15.9621M13 1.01208C13 1.01208 14.408 2.86408 15.295 5.96208M11 20.9121C11 20.9121 9.592 19.0601 8.705 15.9621M11 1.01208C11 1.01208 9.592 2.86408 8.705 5.96208M9 8.96208L10.5 13.9621L12 8.96208L13.5 13.9621L15 8.96208M1 8.96208L2.5 13.9621L4 8.96208L5.5 13.9621L7 8.96208M17 8.96208L18.5 13.9621L20 8.96208L21.5 13.9621L23 8.96208" stroke="black" stroke-width="1.5" stroke-linecap="round" stroke-linejoin="round"/>
</svg>
