<svg width="38" height="32" viewBox="0 0 38 32" fill="none" xmlns="http://www.w3.org/2000/svg">
<path d="M11.7931 26.2069C11.7931 25.4835 11.5372 24.8658 11.0253 24.354C10.5135 23.8421 9.89583 23.5862 9.17241 23.5862C8.44899 23.5862 7.83136 23.8421 7.3195 24.354C6.80765 24.8658 6.55172 25.4835 6.55172 26.2069C6.55172 26.9303 6.80765 27.548 7.3195 28.0598C7.83136 28.5717 8.44899 28.8276 9.17241 28.8276C9.89583 28.8276 10.5135 28.5717 11.0253 28.0598C11.5372 27.548 11.7931 26.9303 11.7931 26.2069ZM3.93103 15.7241H11.7931V10.4828H8.55819C8.3671 10.5101 8.21695 10.5715 8.10776 10.667L4.1153 14.6595C4.01976 14.8233 3.95833 14.9734 3.93103 15.1099V15.7241ZM30.1379 26.2069C30.1379 25.4835 29.882 24.8658 29.3702 24.354C28.8583 23.8421 28.2407 23.5862 27.5172 23.5862C26.7938 23.5862 26.1762 23.8421 25.6643 24.354C25.1525 24.8658 24.8966 25.4835 24.8966 26.2069C24.8966 26.9303 25.1525 27.548 25.6643 28.0598C26.1762 28.5717 26.7938 28.8276 27.5172 28.8276C28.2407 28.8276 28.8583 28.5717 29.3702 28.0598C29.882 27.548 30.1379 26.9303 30.1379 26.2069ZM32.7586 12.4483V8.51724C32.7586 8.32615 32.6972 8.16918 32.5744 8.04634C32.4515 7.92349 32.2945 7.86207 32.1034 7.86207H27.5172V3.27586C27.5172 3.08477 27.4558 2.9278 27.333 2.80496C27.2101 2.68211 27.0532 2.62069 26.8621 2.62069H22.931C22.7399 2.62069 22.583 2.68211 22.4601 2.80496C22.3373 2.9278 22.2759 3.08477 22.2759 3.27586V7.86207H17.6897C17.4986 7.86207 17.3416 7.92349 17.2187 8.04634C17.0959 8.16918 17.0345 8.32615 17.0345 8.51724V12.4483C17.0345 12.6394 17.0959 12.7963 17.2187 12.9192C17.3416 13.042 17.4986 13.1034 17.6897 13.1034H22.2759V17.6897C22.2759 17.8807 22.3373 18.0377 22.4601 18.1606C22.583 18.2834 22.7399 18.3448 22.931 18.3448H26.8621C27.0532 18.3448 27.2101 18.2834 27.333 18.1606C27.4558 18.0377 27.5172 17.8807 27.5172 17.6897V13.1034H32.1034C32.2945 13.1034 32.4515 13.042 32.5744 12.9192C32.6972 12.7963 32.7586 12.6394 32.7586 12.4483ZM38 1.31034V24.8966C38 25.2514 37.8703 25.5585 37.611 25.8179C37.3517 26.0772 37.0445 26.2069 36.6897 26.2069H32.7586C32.7586 27.6537 32.2468 28.889 31.2231 29.9127C30.1994 30.9364 28.9641 31.4483 27.5172 31.4483C26.0704 31.4483 24.8351 30.9364 23.8114 29.9127C22.7877 28.889 22.2759 27.6537 22.2759 26.2069H14.4138C14.4138 27.6537 13.9019 28.889 12.8782 29.9127C11.8545 30.9364 10.6193 31.4483 9.17241 31.4483C7.72557 31.4483 6.4903 30.9364 5.46659 29.9127C4.44289 28.889 3.93103 27.6537 3.93103 26.2069H1.31034C0.95546 26.2069 0.648348 26.0772 0.389009 25.8179C0.12967 25.5585 0 25.2514 0 24.8966C0 24.5417 0.12967 24.2346 0.389009 23.9752C0.648348 23.7159 0.95546 23.5862 1.31034 23.5862V15.069C1.31034 14.7141 1.39907 14.3182 1.57651 13.8815C1.75395 13.4447 1.97234 13.0966 2.23168 12.8373L6.28556 8.78341C6.5449 8.52407 6.89296 8.30568 7.32974 8.12823C7.76652 7.95079 8.16236 7.86207 8.51724 7.86207H11.7931V1.31034C11.7931 0.95546 11.9228 0.648348 12.1821 0.389009C12.4415 0.12967 12.7486 0 13.1034 0H36.6897C37.0445 0 37.3517 0.12967 37.611 0.389009C37.8703 0.648348 38 0.95546 38 1.31034Z" fill="white"/>
</svg>
