<svg width="26" height="46" viewBox="0 0 26 46" fill="none" xmlns="http://www.w3.org/2000/svg">
<path d="M10.7423 7.65293C11.7553 7.73226 12.7585 7.40654 13.5316 6.74722C14.3048 6.08791 14.7849 5.14883 14.8666 4.13601C14.9451 3.12235 14.6184 2.11893 13.9581 1.3458C13.2979 0.57266 12.358 0.0929126 11.3445 0.011757C10.3313 -0.067738 9.32788 0.258253 8.55484 0.918109C7.78179 1.57796 7.30231 2.51771 7.22173 3.53088C7.18218 4.03276 7.24187 4.53751 7.39739 5.01631C7.55291 5.49512 7.80122 5.9386 8.12814 6.32144C8.45506 6.70428 8.85419 7.01897 9.30273 7.24755C9.75128 7.47614 10.2405 7.61414 10.7423 7.65366V7.65293ZM11.7932 15.3352C12.384 15.4488 12.9166 15.7652 13.299 16.2296C13.6814 16.6941 13.8896 17.2775 13.8877 17.8791C13.8875 18.5662 13.6144 19.2251 13.1286 19.7109C12.6427 20.1968 11.9839 20.4698 11.2968 20.47H2.9014C2.63146 20.4701 2.36564 20.4037 2.12739 20.2768C1.88915 20.1499 1.6858 19.9662 1.53529 19.7421C1.38478 19.5181 1.29173 19.2604 1.26436 18.9918C1.23698 18.7232 1.27612 18.4521 1.37831 18.2022L2.286 16.0836L12.3954 8.84262H7.57864C5.72875 8.79121 4.4289 9.43379 3.68351 10.8908C3.17826 11.8712 0.494857 17.8659 0.494857 17.8659C0.337906 18.259 0.279686 18.6847 0.325292 19.1056C0.370898 19.5264 0.518941 19.9297 0.756468 20.2801C0.993995 20.6306 1.31377 20.9174 1.68782 21.1157C2.06187 21.3139 2.4788 21.4175 2.90214 21.4173H6.18112L5.21395 27.777L0.124732 42.4836C-0.081041 43.1071 -0.0307194 43.7867 0.264626 44.3731C0.55997 44.9594 1.07615 45.4044 1.6996 45.6102C2.32305 45.816 3.00271 45.7657 3.58907 45.4703C4.17542 45.175 4.62043 44.6588 4.8262 44.0353L10.6784 27.4458C11.8197 29.3001 14.0911 32.6239 14.4774 33.2518C14.5662 34.2953 15.3836 43.4948 15.3836 43.4948C15.4423 44.1487 15.7581 44.7524 16.2617 45.1736C16.7652 45.5948 17.4153 45.799 18.0692 45.7413C18.3931 45.7128 18.7083 45.6206 18.9966 45.4702C19.2849 45.3197 19.5407 45.1138 19.7494 44.8644C19.958 44.6149 20.1155 44.3268 20.2126 44.0164C20.3098 43.7061 20.3448 43.3796 20.3156 43.0557L19.3536 32.2288C19.321 31.8453 19.1976 31.475 18.9938 31.1485L14.7865 24.3299L15.4563 15.7722C15.4563 15.7722 16.4528 19.1584 16.527 19.4029C16.7407 20.1021 17.2225 20.6036 17.7167 21.0039C18.006 21.2345 22.9168 24.5766 22.9168 24.5766C23.19 24.7029 23.4132 24.8138 23.7062 24.8336C23.9325 24.8518 24.16 24.8252 24.376 24.7554C24.5919 24.6856 24.792 24.5739 24.9647 24.4267C25.1375 24.2795 25.2796 24.0998 25.3828 23.8977C25.486 23.6956 25.5484 23.4751 25.5664 23.2489C25.5889 22.9602 25.5388 22.6706 25.4208 22.4063C25.3028 22.1419 25.1206 21.9113 24.8908 21.7353C24.8908 21.7353 19.9977 18.3755 19.7986 18.2294C19.6524 18.1122 19.541 17.9573 19.4762 17.7814L17.5397 10.8063C17.2247 9.75104 16.1613 8.84335 14.8166 8.84335H14.2372L11.7925 15.336L11.7932 15.3352Z" fill="white"/>
</svg>
