<svg width="33" height="33" viewBox="0 0 33 33" fill="none" xmlns="http://www.w3.org/2000/svg">
<path d="M1.83334 33C1.3139 33 0.878173 32.824 0.526173 32.472C0.174173 32.12 -0.00121588 31.6849 6.34372e-06 31.1667C6.34372e-06 30.6472 0.176007 30.2115 0.528007 29.8595C0.880007 29.5075 1.31512 29.3321 1.83334 29.3333H3.66667V1.83334C3.66667 1.3139 3.84267 0.878173 4.19467 0.526173C4.54667 0.174173 4.98178 -0.00121588 5.50001 6.34372e-06H18.3333C18.8528 6.34372e-06 19.2885 0.176007 19.6405 0.528007C19.9925 0.880007 20.1679 1.31512 20.1667 1.83334H27.5C28.0195 1.83334 28.4552 2.00934 28.8072 2.36134C29.1592 2.71334 29.3346 3.14845 29.3333 3.66667V29.3333H31.1667C31.6861 29.3333 32.1218 29.5093 32.4738 29.8613C32.8258 30.2133 33.0012 30.6485 33 31.1667C33 31.6861 32.824 32.1218 32.472 32.4738C32.12 32.8258 31.6849 33.0012 31.1667 33H27.5C26.9806 33 26.5448 32.824 26.1928 32.472C25.8408 32.12 25.6655 31.6849 25.6667 31.1667V5.50001H20.1667V31.1667C20.1667 31.6861 19.9907 32.1218 19.6387 32.4738C19.2867 32.8258 18.8516 33.0012 18.3333 33H1.83334ZM16.5 16.5C16.5 15.9806 16.324 15.5448 15.972 15.1928C15.62 14.8408 15.1849 14.6655 14.6667 14.6667C14.1472 14.6667 13.7115 14.8427 13.3595 15.1947C13.0075 15.5467 12.8321 15.9818 12.8333 16.5C12.8333 17.0195 13.0093 17.4552 13.3613 17.8072C13.7133 18.1592 14.1485 18.3346 14.6667 18.3333C15.1861 18.3333 15.6218 18.1573 15.9738 17.8053C16.3258 17.4533 16.5012 17.0182 16.5 16.5Z" fill="white"/>
</svg>
