<svg width="37" height="37" viewBox="0 0 37 37" fill="none" xmlns="http://www.w3.org/2000/svg">
<path d="M14.625 0C13.5973 0 12.6117 0.408258 11.885 1.13496C11.1583 1.86166 10.75 2.84729 10.75 3.875V10.75H3.875C2.84729 10.75 1.86166 11.1583 1.13496 11.885C0.408258 12.6117 0 13.5973 0 14.625V22.375C0 23.4027 0.408258 24.3883 1.13496 25.115C1.86166 25.8417 2.84729 26.25 3.875 26.25H10.75V33.125C10.75 34.1527 11.1583 35.1383 11.885 35.865C12.6117 36.5917 13.5973 37 14.625 37H22.375C23.4027 37 24.3883 36.5917 25.115 35.865C25.8417 35.1383 26.25 34.1527 26.25 33.125V26.25H33.125C34.1527 26.25 35.1383 25.8417 35.865 25.115C36.5917 24.3883 37 23.4027 37 22.375V14.625C37 13.5973 36.5917 12.6117 35.865 11.885C35.1383 11.1583 34.1527 10.75 33.125 10.75H26.25V3.875C26.25 2.84729 25.8417 1.86166 25.115 1.13496C24.3883 0.408258 23.4027 0 22.375 0H14.625Z" fill="white"/>
</svg>
