<svg width="24" height="24" viewBox="0 0 24 24" fill="none" xmlns="http://www.w3.org/2000/svg">
<path d="M6.00787 23.1881C5.88143 23.1245 5.7823 23.0174 5.72886 22.8863C5.67542 22.7553 5.67129 22.6094 5.71724 22.4756L6.47099 20.2687L7.94662 21.2643L6.75412 22.9968C6.67364 23.1132 6.55382 23.1967 6.41672 23.2318C6.27961 23.267 6.13442 23.2514 6.00787 23.1881ZM17.8804 23.1881C18.141 23.0568 18.2666 22.7531 18.171 22.4756L17.4079 20.2424L15.8535 21.1368L17.1341 22.9968C17.2146 23.1132 17.3344 23.1967 17.4715 23.2318C17.6086 23.267 17.7538 23.2514 17.8804 23.1881Z" fill="#82AEC0"/>
<path d="M6.47129 20.2688L6.08691 21.3938C6.32504 21.257 6.63629 21.2701 6.88379 21.392C7.13129 21.5138 7.32066 21.7276 7.46504 21.9638L7.90191 21.3301C7.90191 21.3038 6.47129 20.2688 6.47129 20.2688ZM17.4138 20.2407L17.83 21.4782C17.5919 21.3413 17.3069 21.3451 17.0575 21.467C16.81 21.5888 16.6207 21.8026 16.4763 22.0388L15.9044 21.2082L17.4138 20.2407Z" fill="#2F7889"/>
<path d="M11.9443 21.7389C16.2945 21.7389 19.8211 18.2123 19.8211 13.862C19.8211 9.5117 16.2945 5.98511 11.9443 5.98511C7.59398 5.98511 4.06738 9.5117 4.06738 13.862C4.06738 18.2123 7.59398 21.7389 11.9443 21.7389Z" fill="#FFEFA1"/>
<path d="M11.9435 22.4214C17.0549 22.4214 21.1985 18.2778 21.1985 13.1664C21.1985 8.05498 17.0549 3.91138 11.9435 3.91138C6.83208 3.91138 2.68848 8.05498 2.68848 13.1664C2.68848 18.2778 6.83208 22.4214 11.9435 22.4214Z" fill="#CC2929"/>
<path d="M11.9441 22.3312C16.749 22.3312 20.6441 18.436 20.6441 13.6312C20.6441 8.82627 16.749 4.93115 11.9441 4.93115C7.13926 4.93115 3.24414 8.82627 3.24414 13.6312C3.24414 18.436 7.13926 22.3312 11.9441 22.3312Z" fill="#FF4638"/>
<path d="M11.9431 21.137C16.0884 21.137 19.4488 17.7766 19.4488 13.6314C19.4488 9.48611 16.0884 6.12573 11.9431 6.12573C7.79788 6.12573 4.4375 9.48611 4.4375 13.6314C4.4375 17.7766 7.79788 21.137 11.9431 21.137Z" fill="#FAFAFA"/>
<path d="M12.0004 14.4656C12.4612 14.4656 12.8348 14.0921 12.8348 13.6312C12.8348 13.1704 12.4612 12.7969 12.0004 12.7969C11.5396 12.7969 11.166 13.1704 11.166 13.6312C11.166 14.0921 11.5396 14.4656 12.0004 14.4656Z" fill="#563428"/>
<path d="M11.9446 7.98196C11.7928 7.98196 11.669 7.85821 11.669 7.70634V6.88134C11.669 6.72946 11.7928 6.60571 11.9446 6.60571C12.0965 6.60571 12.2203 6.72946 12.2203 6.88134V7.70634C12.2203 7.85821 12.0965 7.98196 11.9446 7.98196ZM11.9446 20.6551C11.7928 20.6551 11.669 20.5313 11.669 20.3795V19.5545C11.669 19.4026 11.7928 19.2788 11.9446 19.2788C12.0965 19.2788 12.2203 19.4026 12.2203 19.5545V20.3795C12.2203 20.5313 12.0965 20.6551 11.9446 20.6551ZM18.6928 13.9051H17.8678C17.7159 13.9051 17.5921 13.7813 17.5921 13.6295C17.5921 13.4776 17.7159 13.3538 17.8678 13.3538H18.6928C18.8446 13.3538 18.9684 13.4776 18.9684 13.6295C18.9684 13.7832 18.8446 13.9051 18.6928 13.9051ZM6.02152 13.9051H5.19652C5.04465 13.9051 4.9209 13.7813 4.9209 13.6295C4.9209 13.4776 5.04465 13.3538 5.19652 13.3538H6.02152C6.1734 13.3538 6.29715 13.4776 6.29715 13.6295C6.29715 13.7832 6.1734 13.9051 6.02152 13.9051Z" fill="#B2947C"/>
<path d="M11.9436 7.98196C11.7917 7.98196 11.668 7.85821 11.668 7.70634V6.88134C11.668 6.72946 11.7917 6.60571 11.9436 6.60571C12.0955 6.60571 12.2192 6.72946 12.2192 6.88134V7.70634C12.2192 7.85821 12.0955 7.98196 11.9436 7.98196ZM11.9436 20.6551C11.7917 20.6551 11.668 20.5313 11.668 20.3795V19.5545C11.668 19.4026 11.7917 19.2788 11.9436 19.2788C12.0955 19.2788 12.2192 19.4026 12.2192 19.5545V20.3795C12.2192 20.5313 12.0955 20.6551 11.9436 20.6551ZM8.74297 8.63821L8.33047 7.92384C8.2536 7.79259 8.2986 7.62384 8.43172 7.54696C8.56297 7.47009 8.73172 7.51509 8.8086 7.64821L9.2211 8.36259C9.29797 8.49384 9.25297 8.66259 9.11985 8.73946C8.9886 8.81446 8.81985 8.76946 8.74297 8.63821ZM15.0805 19.6126L14.668 18.8982C14.5911 18.767 14.638 18.5982 14.7692 18.5213C14.9005 18.4445 15.0692 18.4913 15.1461 18.6226L15.5586 19.337C15.6355 19.4682 15.5886 19.637 15.4573 19.7138C15.3242 19.7888 15.1555 19.7438 15.0805 19.6126Z" fill="#B2947C"/>
<path d="M8.74221 8.63803L8.32971 7.92365C8.25284 7.7924 8.29784 7.62365 8.43096 7.54678C8.56221 7.4699 8.73096 7.51491 8.80784 7.64803L9.22034 8.3624C9.29721 8.49365 9.25221 8.66241 9.11909 8.73928C8.98784 8.81428 8.81909 8.76928 8.74221 8.63803ZM15.0797 19.6124L14.6672 18.898C14.5903 18.7668 14.6372 18.598 14.7685 18.5212C14.8997 18.4443 15.0685 18.4912 15.1453 18.6224L15.5578 19.3368C15.6347 19.468 15.5878 19.6368 15.4566 19.7137C15.3235 19.7887 15.1547 19.7437 15.0797 19.6124ZM6.67596 10.9068L5.96159 10.4943C5.83034 10.4174 5.78534 10.2505 5.86034 10.1174C5.93721 9.98616 6.10409 9.94115 6.23721 10.0162L6.95159 10.4287C7.08284 10.5055 7.12784 10.6724 7.05284 10.8055C6.97596 10.9387 6.80721 10.9837 6.67596 10.9068ZM17.6503 17.2424L16.936 16.8299C16.8047 16.753 16.7597 16.5862 16.8347 16.453C16.9116 16.3218 17.0785 16.2768 17.2116 16.3518L17.926 16.7643C18.0572 16.8412 18.1022 17.008 18.0272 17.1412C17.9503 17.2743 17.7816 17.3193 17.6503 17.2424ZM14.7666 8.73928C14.6353 8.66241 14.5903 8.49553 14.6653 8.3624L15.0778 7.64803C15.1547 7.51678 15.3216 7.47178 15.4547 7.54678C15.586 7.62365 15.631 7.79053 15.556 7.92365L15.1435 8.63803C15.0666 8.76928 14.8997 8.81428 14.7666 8.73928ZM8.43096 19.7137C8.29971 19.6368 8.25471 19.4699 8.32971 19.3368L8.74221 18.6224C8.81909 18.4912 8.98596 18.4462 9.11909 18.5212C9.25034 18.598 9.29534 18.7649 9.22034 18.898L8.80784 19.6124C8.73096 19.7437 8.56221 19.7887 8.43096 19.7137ZM16.8347 10.8055C16.7578 10.6743 16.8028 10.5055 16.936 10.4287L17.6503 10.0162C17.7816 9.93928 17.9503 9.98616 18.0272 10.1174C18.1041 10.2487 18.0572 10.4174 17.926 10.4943L17.2116 10.9068C17.0785 10.9837 16.9097 10.9387 16.8347 10.8055ZM5.86034 17.143C5.78346 17.0118 5.83034 16.843 5.96159 16.7662L6.67596 16.3537C6.80721 16.2768 6.97596 16.3237 7.05284 16.4549C7.12971 16.5862 7.08284 16.7549 6.95159 16.8318L6.23721 17.2443C6.10409 17.3193 5.93534 17.2743 5.86034 17.143Z" fill="#B2947C"/>
<path d="M8.90527 11.9045L11.9446 13.6314" stroke="#563428" stroke-width="0.9375" stroke-miterlimit="10" stroke-linecap="round"/>
<path d="M16.2886 11.1394L12.083 13.6313" stroke="#563428" stroke-width="0.65625" stroke-miterlimit="10" stroke-linecap="round"/>
<path d="M17.2489 6.09193L16.4727 5.58381L19.1145 0.903809L19.9208 1.35943L17.2489 6.09193Z" fill="#82AEC0"/>
<path d="M20.844 6.60187C21.0747 6.66937 21.3222 6.54187 21.3934 6.31312C22.0009 4.37249 21.2134 2.26124 19.3084 1.28062C17.3903 0.292493 15.3072 0.941243 14.094 2.59687C13.9572 2.78249 13.989 3.04312 14.1615 3.19499C14.5534 3.54187 15.4234 4.19437 17.1578 5.07187C18.9897 5.99812 20.2459 6.42562 20.844 6.60187Z" fill="#CC2929"/>
<path d="M19.8468 1.93126C19.8468 1.93126 20.3361 1.30689 19.6255 0.91126C19.0724 0.60376 18.7218 1.27689 18.7218 1.27689C18.5999 1.50001 19.7624 2.08501 19.8468 1.93126ZM6.68051 6.09751L4.00488 1.35939L4.81301 0.90376L7.41176 5.50876L6.68051 6.09751Z" fill="#82AEC0"/>
<path d="M3.15505 6.60187C2.92443 6.66937 2.67693 6.54187 2.60568 6.31312C1.99818 4.37249 2.78568 2.26124 4.69068 1.28062C6.6088 0.292493 8.69193 0.941243 9.90505 2.59687C10.0419 2.78249 10.0101 3.04312 9.83755 3.19499C9.44568 3.54187 8.57568 4.19437 6.8413 5.07187C5.00943 5.99812 3.75318 6.42562 3.15505 6.60187Z" fill="#CC2929"/>
<path d="M4.15254 1.93126C4.15254 1.93126 3.66317 1.30689 4.37379 0.91126C4.92692 0.60376 5.27754 1.27689 5.27754 1.27689C5.39942 1.50001 4.23692 2.08501 4.15254 1.93126Z" fill="#82AEC0"/>
<path d="M11.9434 4.35375V1.78125" stroke="#82AEC0" stroke-width="0.694875" stroke-miterlimit="10"/>
<path d="M11.9553 2.69624C11.2203 2.69624 10.4834 2.41499 10.4834 2.41499V1.85812C10.4834 1.85812 11.1678 1.55249 11.9909 1.55249C12.814 1.55249 13.4253 1.85812 13.4253 1.85812V2.41499C13.4271 2.41687 12.6921 2.69624 11.9553 2.69624Z" fill="#82AEC0"/>
<path d="M10.6687 1.8356C10.5881 1.8656 10.5806 1.97622 10.6556 2.01935C10.7643 2.08122 10.8937 2.14497 10.9387 2.13747C11.5574 2.04185 12.4556 2.08872 13.0762 2.18247C13.1193 2.18997 13.2431 2.08497 13.3312 2.00622C13.3799 1.96122 13.3687 1.88435 13.3087 1.85622C13.1137 1.7681 12.6731 1.6106 11.9906 1.6106C11.3606 1.6106 10.9049 1.74372 10.6687 1.8356Z" fill="#94D1E0"/>
<path d="M17.823 1.48104C17.8811 1.67979 17.6674 1.84292 17.4949 1.95729C17.06 2.24944 16.7106 2.65193 16.4824 3.12354C16.3736 3.34854 16.2518 3.62417 16.0024 3.65979C15.903 3.67292 15.8055 3.64292 15.7118 3.60917C15.5674 3.55667 15.4268 3.49667 15.2899 3.42729C15.1268 3.34479 14.9599 3.23979 14.8849 3.07292C14.7874 2.85354 14.8793 2.59479 15.0105 2.39229C15.3236 1.91417 15.8336 1.61792 16.3586 1.42292C16.6755 1.30479 17.6655 0.942919 17.823 1.48104ZM4.89863 3.06167C5.02051 3.31479 5.15738 3.56042 5.30926 3.79667C5.49488 4.08542 5.71051 4.40792 5.63176 4.74167C5.53988 5.12417 5.11613 5.30792 4.74301 5.43542C4.55176 5.50104 4.36238 5.56667 4.17113 5.63229C4.06988 5.66792 3.96301 5.70354 3.85613 5.69792C3.68738 5.69042 3.53551 5.58354 3.43988 5.44667C3.34238 5.30979 3.29363 5.14479 3.25613 4.98167C3.11551 4.35354 3.14363 3.68792 3.33676 3.07292C3.44926 2.72042 3.62551 2.34917 4.02488 2.32104C4.51051 2.28729 4.71676 2.68292 4.89863 3.06167Z" fill="#FF4638"/>
</svg>
