<svg width="21" height="22" viewBox="0 0 21 22" fill="none" xmlns="http://www.w3.org/2000/svg">
<path d="M0 19.3427V6.07959H21V19.3427C21 20.5585 20.0053 21.5533 18.7895 21.5533H2.21053C0.994737 21.5533 0 20.5585 0 19.3427Z" fill="#CFD8DC"/>
<path d="M21 3.86849V7.18427H0V3.86849C0 2.6527 0.994737 1.65796 2.21053 1.65796H18.7895C20.0053 1.65796 21 2.6527 21 3.86849Z" fill="#F44336"/>
<path d="M15.4735 0C14.8656 0 14.3683 0.497368 14.3683 1.10526V3.86842C14.3683 4.47632 14.8656 4.97368 15.4735 4.97368C16.0814 4.97368 16.5788 4.47632 16.5788 3.86842V1.10526C16.5788 0.497368 16.0814 0 15.4735 0ZM5.52616 0C4.91827 0 4.4209 0.497368 4.4209 1.10526V3.86842C4.4209 4.47632 4.91827 4.97368 5.52616 4.97368C6.13406 4.97368 6.63142 4.47632 6.63142 3.86842V1.10526C6.63142 0.497368 6.13406 0 5.52616 0Z" fill="#B0BEC5"/>
<path d="M4.4209 9.39526H6.63142V11.6058H4.4209V9.39526ZM7.73669 9.39526H9.94721V11.6058H7.73669V9.39526ZM11.0525 9.39526H13.263V11.6058H11.0525V9.39526ZM14.3683 9.39526H16.5788V11.6058H14.3683V9.39526ZM4.4209 12.7111H6.63142V14.9216H4.4209V12.7111ZM7.73669 12.7111H9.94721V14.9216H7.73669V12.7111ZM11.0525 12.7111H13.263V14.9216H11.0525V12.7111ZM14.3683 12.7111H16.5788V14.9216H14.3683V12.7111ZM4.4209 16.0268H6.63142V18.2374H4.4209V16.0268ZM7.73669 16.0268H9.94721V18.2374H7.73669V16.0268ZM11.0525 16.0268H13.263V18.2374H11.0525V16.0268ZM14.3683 16.0268H16.5788V18.2374H14.3683V16.0268Z" fill="#90A4AE"/>
</svg>
